<?xml version="1.0" encoding="UTF-8" standalone="no"?>
<svg
   width="216pt"
   height="216pt"
   viewBox="0 0 216 216"
   version="1.1"
   id="svg40"
   sodipodi:docname="exp002_adj.svg"
   inkscape:version="1.4.2 (f4327f4, 2025-05-13)"
   xmlns:inkscape="http://www.inkscape.org/namespaces/inkscape"
   xmlns:sodipodi="http://sodipodi.sourceforge.net/DTD/sodipodi-0.dtd"
   xmlns:xlink="http://www.w3.org/1999/xlink"
   xmlns="http://www.w3.org/2000/svg"
   xmlns:svg="http://www.w3.org/2000/svg">
  <sodipodi:namedview
     id="namedview40"
     pagecolor="#ffffff"
     bordercolor="#000000"
     borderopacity="0.25"
     inkscape:showpageshadow="2"
     inkscape:pageopacity="0.0"
     inkscape:pagecheckerboard="0"
     inkscape:deskcolor="#d1d1d1"
     inkscape:document-units="pt"
     showgrid="false"
     inkscape:zoom="2.6840278"
     inkscape:cx="144"
     inkscape:cy="144"
     inkscape:window-width="1920"
     inkscape:window-height="991"
     inkscape:window-x="-9"
     inkscape:window-y="1341"
     inkscape:window-maximized="1"
     inkscape:current-layer="svg40" />
  <defs
     id="defs10">
    <g
       id="g10">
      <g
         id="glyph-0-0">
        <path
           d="M 1.753906 -1.949219 L 4.246094 -1.949219 L 4.246094 -9.015625 L 1.695312 -8.488281 L 1.695312 -10.410156 L 4.230469 -10.933594 L 6.914062 -10.933594 L 6.914062 -1.949219 L 9.40625 -1.949219 L 9.40625 0 L 1.753906 0 Z M 1.753906 -1.949219 "
           id="path1" />
      </g>
      <g
         id="glyph-0-1">
        <path
           d="M 4.320312 -2.070312 L 9.136719 -2.070312 L 9.136719 0 L 1.183594 0 L 1.183594 -2.070312 L 5.175781 -5.59375 C 5.535156 -5.910156 5.789062 -6.226562 5.96875 -6.539062 C 6.136719 -6.839844 6.226562 -7.171875 6.226562 -7.5 C 6.226562 -8.011719 6.046875 -8.414062 5.699219 -8.730469 C 5.355469 -9.046875 4.90625 -9.210938 4.335938 -9.210938 C 3.886719 -9.210938 3.40625 -9.105469 2.894531 -8.925781 C 2.371094 -8.730469 1.816406 -8.445312 1.214844 -8.085938 L 1.214844 -10.484375 C 1.84375 -10.695312 2.476562 -10.84375 3.105469 -10.964844 C 3.71875 -11.070312 4.320312 -11.128906 4.921875 -11.128906 C 6.226562 -11.128906 7.246094 -10.828125 7.964844 -10.261719 C 8.683594 -9.691406 9.058594 -8.878906 9.058594 -7.859375 C 9.058594 -7.261719 8.894531 -6.691406 8.59375 -6.179688 C 8.28125 -5.671875 7.636719 -4.980469 6.660156 -4.125 Z M 4.320312 -2.070312 "
           id="path2" />
      </g>
      <g
         id="glyph-0-2">
        <path
           d="M 6.988281 -5.894531 C 7.726562 -5.699219 8.28125 -5.371094 8.671875 -4.90625 C 9.046875 -4.425781 9.238281 -3.824219 9.238281 -3.105469 C 9.238281 -2.023438 8.820312 -1.199219 7.996094 -0.644531 C 7.15625 -0.0742188 5.953125 0.195312 4.363281 0.195312 C 3.796875 0.195312 3.238281 0.148438 2.671875 0.0585938 C 2.101562 -0.015625 1.546875 -0.148438 1.003906 -0.328125 L 1.003906 -2.503906 C 1.53125 -2.234375 2.054688 -2.039062 2.578125 -1.90625 C 3.089844 -1.769531 3.601562 -1.710938 4.109375 -1.710938 C 4.859375 -1.710938 5.429688 -1.828125 5.820312 -2.101562 C 6.210938 -2.355469 6.421875 -2.730469 6.421875 -3.210938 C 6.421875 -3.703125 6.210938 -4.078125 5.804688 -4.335938 C 5.398438 -4.589844 4.800781 -4.726562 4.003906 -4.726562 L 2.878906 -4.726562 L 2.878906 -6.539062 L 4.066406 -6.539062 C 4.769531 -6.539062 5.296875 -6.644531 5.640625 -6.871094 C 5.984375 -7.078125 6.164062 -7.425781 6.164062 -7.890625 C 6.164062 -8.308594 5.984375 -8.625 5.65625 -8.863281 C 5.324219 -9.089844 4.84375 -9.210938 4.230469 -9.210938 C 3.78125 -9.210938 3.316406 -9.148438 2.851562 -9.046875 C 2.386719 -8.941406 1.921875 -8.789062 1.46875 -8.59375 L 1.46875 -10.664062 C 2.023438 -10.816406 2.578125 -10.933594 3.121094 -11.011719 C 3.660156 -11.085938 4.199219 -11.128906 4.738281 -11.128906 C 6.148438 -11.128906 7.214844 -10.890625 7.921875 -10.425781 C 8.625 -9.960938 8.984375 -9.253906 8.984375 -8.324219 C 8.984375 -7.679688 8.804688 -7.15625 8.476562 -6.75 C 8.144531 -6.34375 7.648438 -6.058594 6.988281 -5.894531 Z M 6.988281 -5.894531 "
           id="path3" />
      </g>
      <g
         id="glyph-0-3">
        <path
           d="M 5.519531 -8.609375 L 2.429688 -4.035156 L 5.519531 -4.035156 Z M 5.054688 -10.933594 L 8.191406 -10.933594 L 8.191406 -4.035156 L 9.75 -4.035156 L 9.75 -1.996094 L 8.191406 -1.996094 L 8.191406 0 L 5.519531 0 L 5.519531 -1.996094 L 0.675781 -1.996094 L 0.675781 -4.410156 Z M 5.054688 -10.933594 "
           id="path4" />
      </g>
      <g
         id="glyph-0-4">
        <path
           d="M 1.589844 -10.933594 L 8.59375 -10.933594 L 8.59375 -8.863281 L 3.839844 -8.863281 L 3.839844 -7.171875 C 4.050781 -7.230469 4.261719 -7.273438 4.484375 -7.304688 C 4.695312 -7.335938 4.921875 -7.351562 5.160156 -7.351562 C 6.496094 -7.351562 7.53125 -7.003906 8.28125 -6.34375 C 9.015625 -5.683594 9.390625 -4.753906 9.390625 -3.570312 C 9.390625 -2.386719 8.984375 -1.453125 8.175781 -0.796875 C 7.363281 -0.136719 6.238281 0.195312 4.816406 0.195312 C 4.183594 0.195312 3.570312 0.136719 2.96875 0.015625 C 2.355469 -0.0898438 1.753906 -0.269531 1.15625 -0.511719 L 1.15625 -2.730469 C 1.753906 -2.386719 2.308594 -2.128906 2.851562 -1.964844 C 3.390625 -1.785156 3.886719 -1.710938 4.363281 -1.710938 C 5.039062 -1.710938 5.578125 -1.875 5.96875 -2.203125 C 6.359375 -2.535156 6.570312 -3 6.570312 -3.570312 C 6.570312 -4.140625 6.359375 -4.589844 5.96875 -4.921875 C 5.578125 -5.25 5.039062 -5.429688 4.363281 -5.429688 C 3.945312 -5.429688 3.511719 -5.371094 3.058594 -5.265625 C 2.609375 -5.160156 2.113281 -4.996094 1.589844 -4.785156 Z M 1.589844 -10.933594 "
           id="path5" />
      </g>
      <g
         id="glyph-0-5">
        <path
           d="M 5.429688 -5.398438 C 4.933594 -5.398438 4.558594 -5.234375 4.320312 -4.921875 C 4.066406 -4.589844 3.945312 -4.109375 3.945312 -3.480469 C 3.945312 -2.835938 4.066406 -2.355469 4.320312 -2.039062 C 4.558594 -1.710938 4.933594 -1.558594 5.429688 -1.558594 C 5.925781 -1.558594 6.300781 -1.710938 6.539062 -2.039062 C 6.78125 -2.355469 6.914062 -2.835938 6.914062 -3.480469 C 6.914062 -4.109375 6.78125 -4.589844 6.539062 -4.921875 C 6.300781 -5.234375 5.925781 -5.398438 5.429688 -5.398438 Z M 8.910156 -10.648438 L 8.910156 -8.625 C 8.445312 -8.835938 8.011719 -9 7.605469 -9.105469 C 7.183594 -9.210938 6.796875 -9.269531 6.40625 -9.269531 C 5.566406 -9.269531 4.90625 -9.03125 4.441406 -8.566406 C 3.960938 -8.101562 3.691406 -7.410156 3.613281 -6.496094 C 3.929688 -6.734375 4.273438 -6.914062 4.664062 -7.035156 C 5.039062 -7.15625 5.445312 -7.214844 5.894531 -7.214844 C 7.003906 -7.214844 7.90625 -6.886719 8.59375 -6.226562 C 9.285156 -5.566406 9.628906 -4.710938 9.628906 -3.660156 C 9.628906 -2.488281 9.238281 -1.546875 8.476562 -0.855469 C 7.710938 -0.148438 6.691406 0.195312 5.398438 0.195312 C 3.976562 0.195312 2.878906 -0.269531 2.101562 -1.230469 C 1.320312 -2.191406 0.929688 -3.539062 0.929688 -5.308594 C 0.929688 -7.109375 1.378906 -8.535156 2.296875 -9.570312 C 3.195312 -10.589844 4.453125 -11.113281 6.046875 -11.113281 C 6.539062 -11.113281 7.019531 -11.070312 7.5 -10.996094 C 7.980469 -10.921875 8.445312 -10.800781 8.910156 -10.648438 Z M 8.910156 -10.648438 "
           id="path6" />
      </g>
      <g
         id="glyph-0-6">
        <path
           d="M 1.003906 -10.933594 L 9.238281 -10.933594 L 9.238281 -9.34375 L 4.980469 0 L 2.234375 0 L 6.269531 -8.863281 L 1.003906 -8.863281 Z M 1.003906 -10.933594 "
           id="path7" />
      </g>
      <g
         id="glyph-0-7">
        <path
           d="M 5.21875 -4.890625 C 4.679688 -4.890625 4.273438 -4.738281 4.003906 -4.453125 C 3.71875 -4.171875 3.585938 -3.765625 3.585938 -3.226562 C 3.585938 -2.683594 3.71875 -2.265625 4.003906 -1.980469 C 4.273438 -1.695312 4.679688 -1.558594 5.21875 -1.558594 C 5.730469 -1.558594 6.136719 -1.695312 6.421875 -1.980469 C 6.691406 -2.265625 6.839844 -2.683594 6.839844 -3.226562 C 6.839844 -3.765625 6.691406 -4.171875 6.421875 -4.453125 C 6.136719 -4.738281 5.730469 -4.890625 5.21875 -4.890625 Z M 3.164062 -5.820312 C 2.503906 -6.015625 1.996094 -6.316406 1.664062 -6.734375 C 1.320312 -7.15625 1.15625 -7.664062 1.15625 -8.296875 C 1.15625 -9.226562 1.5 -9.929688 2.191406 -10.410156 C 2.878906 -10.890625 3.886719 -11.128906 5.21875 -11.128906 C 6.539062 -11.128906 7.546875 -10.890625 8.234375 -10.410156 C 8.925781 -9.929688 9.269531 -9.226562 9.269531 -8.296875 C 9.269531 -7.664062 9.089844 -7.15625 8.761719 -6.734375 C 8.414062 -6.316406 7.921875 -6.015625 7.261719 -5.820312 C 7.996094 -5.609375 8.550781 -5.28125 8.941406 -4.816406 C 9.316406 -4.351562 9.511719 -3.765625 9.511719 -3.074219 C 9.511719 -1.996094 9.148438 -1.171875 8.429688 -0.628906 C 7.710938 -0.0742188 6.628906 0.195312 5.21875 0.195312 C 3.796875 0.195312 2.714844 -0.0742188 1.996094 -0.628906 C 1.273438 -1.171875 0.914062 -1.996094 0.914062 -3.074219 C 0.914062 -3.765625 1.09375 -4.351562 1.484375 -4.816406 C 1.859375 -5.28125 2.414062 -5.609375 3.164062 -5.820312 Z M 3.824219 -8.011719 C 3.824219 -7.574219 3.945312 -7.246094 4.183594 -7.003906 C 4.425781 -6.765625 4.769531 -6.660156 5.21875 -6.660156 C 5.65625 -6.660156 6 -6.765625 6.238281 -7.003906 C 6.480469 -7.246094 6.601562 -7.574219 6.601562 -8.011719 C 6.601562 -8.445312 6.480469 -8.773438 6.238281 -9.015625 C 6 -9.238281 5.65625 -9.359375 5.21875 -9.359375 C 4.769531 -9.359375 4.425781 -9.238281 4.183594 -9 C 3.945312 -8.761719 3.824219 -8.429688 3.824219 -8.011719 Z M 3.824219 -8.011719 "
           id="path8" />
      </g>
      <g
         id="glyph-0-8">
        <path
           d="M 1.5 -0.238281 L 1.5 -2.265625 C 1.949219 -2.054688 2.371094 -1.890625 2.789062 -1.785156 C 3.195312 -1.679688 3.601562 -1.636719 4.003906 -1.636719 C 4.84375 -1.636719 5.488281 -1.859375 5.96875 -2.324219 C 6.433594 -2.789062 6.703125 -3.480469 6.796875 -4.410156 C 6.464844 -4.171875 6.105469 -3.976562 5.730469 -3.855469 C 5.355469 -3.734375 4.949219 -3.675781 4.515625 -3.675781 C 3.390625 -3.675781 2.488281 -3.988281 1.800781 -4.648438 C 1.109375 -5.296875 0.78125 -6.148438 0.78125 -7.230469 C 0.78125 -8.398438 1.15625 -9.34375 1.921875 -10.050781 C 2.683594 -10.753906 3.703125 -11.113281 4.996094 -11.113281 C 6.421875 -11.113281 7.53125 -10.636719 8.308594 -9.675781 C 9.089844 -8.714844 9.480469 -7.351562 9.480469 -5.59375 C 9.480469 -3.78125 9.015625 -2.355469 8.101562 -1.335938 C 7.183594 -0.316406 5.941406 0.195312 4.351562 0.195312 C 3.839844 0.195312 3.34375 0.148438 2.878906 0.0898438 C 2.398438 0.015625 1.949219 -0.0898438 1.5 -0.238281 Z M 4.980469 -5.503906 C 5.460938 -5.503906 5.835938 -5.65625 6.089844 -5.984375 C 6.328125 -6.300781 6.464844 -6.78125 6.464844 -7.425781 C 6.464844 -8.054688 6.328125 -8.535156 6.089844 -8.863281 C 5.835938 -9.179688 5.460938 -9.34375 4.980469 -9.34375 C 4.484375 -9.34375 4.109375 -9.179688 3.871094 -8.863281 C 3.613281 -8.535156 3.496094 -8.054688 3.496094 -7.425781 C 3.496094 -6.78125 3.613281 -6.300781 3.871094 -5.984375 C 4.109375 -5.65625 4.484375 -5.503906 4.980469 -5.503906 Z M 4.980469 -5.503906 "
           id="path9" />
      </g>
      <g
         id="glyph-0-9">
        <path
           d="M 6.898438 -5.476562 C 6.898438 -6.839844 6.765625 -7.800781 6.511719 -8.371094 C 6.253906 -8.925781 5.820312 -9.210938 5.21875 -9.210938 C 4.621094 -9.210938 4.183594 -8.925781 3.929688 -8.371094 C 3.660156 -7.800781 3.539062 -6.839844 3.539062 -5.476562 C 3.539062 -4.09375 3.660156 -3.121094 3.929688 -2.550781 C 4.183594 -1.980469 4.621094 -1.710938 5.21875 -1.710938 C 5.820312 -1.710938 6.238281 -1.980469 6.511719 -2.550781 C 6.765625 -3.121094 6.898438 -4.09375 6.898438 -5.476562 Z M 9.71875 -5.460938 C 9.71875 -3.644531 9.328125 -2.25 8.550781 -1.273438 C 7.769531 -0.285156 6.660156 0.195312 5.21875 0.195312 C 3.78125 0.195312 2.671875 -0.285156 1.890625 -1.273438 C 1.109375 -2.25 0.71875 -3.644531 0.71875 -5.460938 C 0.71875 -7.261719 1.109375 -8.65625 1.890625 -9.644531 C 2.671875 -10.636719 3.78125 -11.128906 5.21875 -11.128906 C 6.660156 -11.128906 7.769531 -10.636719 8.550781 -9.644531 C 9.328125 -8.65625 9.71875 -7.261719 9.71875 -5.460938 Z M 9.71875 -5.460938 "
           id="path10" />
      </g>
    </g>
  </defs>
  <rect
     x="-21.6"
     y="-21.6"
     width="259.2"
     height="259.2"
     fill="rgb(100%, 100%, 100%)"
     fill-opacity="1"
     id="rect10" />
  <path
     fill="none"
     stroke-width="1"
     stroke-linecap="butt"
     stroke-linejoin="round"
     stroke="rgb(0%, 0%, 0%)"
     stroke-opacity="1"
     stroke-miterlimit="10"
     d="M 197.257812 111.285156 L 185.175781 55.203125 "
     transform="matrix(1, 0, 0, -1, 0, 216)"
     id="path11" />
  <path
     fill="none"
     stroke-width="1"
     stroke-linecap="butt"
     stroke-linejoin="round"
     stroke="rgb(0%, 0%, 0%)"
     stroke-opacity="1"
     stroke-miterlimit="10"
     d="M 197.257812 111.285156 L 175.351562 164.894531 "
     transform="matrix(1, 0, 0, -1, 0, 216)"
     id="path12" />
  <path
     fill="none"
     stroke-width="1"
     stroke-linecap="butt"
     stroke-linejoin="round"
     stroke="rgb(0%, 0%, 0%)"
     stroke-opacity="1"
     stroke-miterlimit="10"
     d="M 185.175781 55.203125 L 142.511719 19.722656 "
     transform="matrix(1, 0, 0, -1, 0, 216)"
     id="path13" />
  <path
     fill="none"
     stroke-width="1"
     stroke-linecap="butt"
     stroke-linejoin="round"
     stroke="rgb(0%, 0%, 0%)"
     stroke-opacity="1"
     stroke-miterlimit="10"
     d="M 142.511719 19.722656 L 87.179688 18.742188 "
     transform="matrix(1, 0, 0, -1, 0, 216)"
     id="path14" />
  <path
     fill="none"
     stroke-width="1"
     stroke-linecap="butt"
     stroke-linejoin="round"
     stroke="rgb(0%, 0%, 0%)"
     stroke-opacity="1"
     stroke-miterlimit="10"
     d="M 87.179688 18.742188 L 40.601562 50.78125 "
     transform="matrix(1, 0, 0, -1, 0, 216)"
     id="path15" />
  <path
     fill="none"
     stroke-width="1"
     stroke-linecap="butt"
     stroke-linejoin="round"
     stroke="rgb(0%, 0%, 0%)"
     stroke-opacity="1"
     stroke-miterlimit="10"
     d="M 40.601562 50.78125 L 18.742188 104.59375 "
     transform="matrix(1, 0, 0, -1, 0, 216)"
     id="path16" />
  <path
     fill="none"
     stroke-width="1"
     stroke-linecap="butt"
     stroke-linejoin="round"
     stroke="rgb(0%, 0%, 0%)"
     stroke-opacity="1"
     stroke-miterlimit="10"
     d="M 18.742188 104.59375 L 30.894531 160.535156 "
     transform="matrix(1, 0, 0, -1, 0, 216)"
     id="path17" />
  <path
     fill="none"
     stroke-width="1"
     stroke-linecap="butt"
     stroke-linejoin="round"
     stroke="rgb(0%, 0%, 0%)"
     stroke-opacity="1"
     stroke-miterlimit="10"
     d="M 30.894531 160.535156 L 73.355469 196.3125 "
     transform="matrix(1, 0, 0, -1, 0, 216)"
     id="path18" />
  <path
     fill="none"
     stroke-width="1"
     stroke-linecap="butt"
     stroke-linejoin="round"
     stroke="rgb(0%, 0%, 0%)"
     stroke-opacity="1"
     stroke-miterlimit="10"
     d="M 73.355469 196.3125 L 128.566406 197.257812 "
     transform="matrix(1, 0, 0, -1, 0, 216)"
     id="path19" />
  <path
     fill="none"
     stroke-width="1"
     stroke-linecap="butt"
     stroke-linejoin="round"
     stroke="rgb(0%, 0%, 0%)"
     stroke-opacity="1"
     stroke-miterlimit="10"
     d="M 128.566406 197.257812 L 175.351562 164.894531 "
     transform="matrix(1, 0, 0, -1, 0, 216)"
     id="path20" />
  <path
     fill-rule="nonzero"
     fill="rgb(52.940369%, 80.783081%, 92.155457%)"
     fill-opacity="1"
     stroke-width="1"
     stroke-linecap="butt"
     stroke-linejoin="round"
     stroke="rgb(52.940369%, 80.783081%, 92.155457%)"
     stroke-opacity="1"
     stroke-miterlimit="10"
     d="M 0.00161415 -11.180289 C 2.966458 -11.180289 5.810208 -10.000602 7.903958 -7.906852 C 10.001614 -5.809196 11.181302 -2.965446 11.181302 -0.000601941 C 11.181302 2.964242 10.001614 5.807992 7.903958 7.905648 C 5.810208 10.003304 2.966458 11.179086 0.00161415 11.179086 C -2.96323 11.179086 -5.810886 10.003304 -7.904636 7.905648 C -10.002292 5.807992 -11.18198 2.964242 -11.18198 -0.000601941 C -11.18198 -2.965446 -10.002292 -5.809196 -7.904636 -7.906852 C -5.810886 -10.000602 -2.96323 -11.180289 0.00161415 -11.180289 Z M 0.00161415 -11.180289 "
     transform="matrix(1, 0, 0, -1, 197.256198, 104.714242)"
     id="path21" />
  <path
     fill-rule="nonzero"
     fill="rgb(52.940369%, 80.783081%, 92.155457%)"
     fill-opacity="1"
     stroke-width="1"
     stroke-linecap="butt"
     stroke-linejoin="round"
     stroke="rgb(52.940369%, 80.783081%, 92.155457%)"
     stroke-opacity="1"
     stroke-miterlimit="10"
     d="M -0.000464363 -11.179168 C 2.964379 -11.179168 5.808129 -10.003387 7.905786 -7.905731 C 10.003442 -5.808074 11.179223 -2.964324 11.179223 0.000519251 C 11.179223 2.965363 10.003442 5.809113 7.905786 7.906769 C 5.808129 10.000519 2.964379 11.180207 -0.000464363 11.180207 C -2.965308 11.180207 -5.809058 10.000519 -7.906714 7.906769 C -10.000464 5.809113 -11.180152 2.965363 -11.180152 0.000519251 C -11.180152 -2.964324 -10.000464 -5.808074 -7.906714 -7.905731 C -5.809058 -10.003387 -2.965308 -11.179168 -0.000464363 -11.179168 Z M -0.000464363 -11.179168 "
     transform="matrix(1, 0, 0, -1, 185.176246, 160.797394)"
     id="path22" />
  <path
     fill-rule="nonzero"
     fill="rgb(52.940369%, 80.783081%, 92.155457%)"
     fill-opacity="1"
     stroke-width="1"
     stroke-linecap="butt"
     stroke-linejoin="round"
     stroke="rgb(52.940369%, 80.783081%, 92.155457%)"
     stroke-opacity="1"
     stroke-miterlimit="10"
     d="M -0.00174301 -11.179512 C 2.967007 -11.179512 5.810757 -10.003731 7.904507 -7.906075 C 10.002163 -5.808418 11.181851 -2.964668 11.181851 0.000175422 C 11.181851 2.965019 10.002163 5.808769 7.904507 7.906425 C 5.810757 10.004082 2.967007 11.179863 -0.00174301 11.179863 C -2.966587 11.179863 -5.810337 10.004082 -7.904087 7.906425 C -10.001743 5.808769 -11.181431 2.965019 -11.181431 0.000175422 C -11.181431 -2.964668 -10.001743 -5.808418 -7.904087 -7.906075 C -5.810337 -10.003731 -2.966587 -11.179512 -0.00174301 -11.179512 Z M -0.00174301 -11.179512 "
     transform="matrix(1, 0, 0, -1, 142.513462, 196.277519)"
     id="path23" />
  <path
     fill-rule="nonzero"
     fill="rgb(52.940369%, 80.783081%, 92.155457%)"
     fill-opacity="1"
     stroke-width="1"
     stroke-linecap="butt"
     stroke-linejoin="round"
     stroke="rgb(52.940369%, 80.783081%, 92.155457%)"
     stroke-opacity="1"
     stroke-miterlimit="10"
     d="M -0.00144649 -11.181302 C 2.963397 -11.181302 5.807147 -10.001614 7.904804 -7.903958 C 10.00246 -5.810208 11.182147 -2.966458 11.182147 -0.00161415 C 11.182147 2.96323 10.00246 5.810886 7.904804 7.904636 C 5.807147 10.002292 2.963397 11.18198 -0.00144649 11.18198 C -2.96629 11.18198 -5.81004 10.002292 -7.90379 7.904636 C -10.001446 5.810886 -11.181134 2.96323 -11.181134 -0.00161415 C -11.181134 -2.966458 -10.001446 -5.810208 -7.90379 -7.903958 C -5.81004 -10.001614 -2.96629 -11.181302 -0.00144649 -11.181302 Z M -0.00144649 -11.181302 "
     transform="matrix(1, 0, 0, -1, 87.181134, 197.256198)"
     id="path24" />
  <path
     fill-rule="nonzero"
     fill="rgb(52.940369%, 80.783081%, 92.155457%)"
     fill-opacity="1"
     stroke-width="1"
     stroke-linecap="butt"
     stroke-linejoin="round"
     stroke="rgb(52.940369%, 80.783081%, 92.155457%)"
     stroke-opacity="1"
     stroke-miterlimit="10"
     d="M -0.000797789 -11.181702 C 2.964046 -11.181702 5.807796 -10.002014 7.905452 -7.904358 C 10.003108 -5.810608 11.17889 -2.966858 11.17889 0.00189222 C 11.17889 2.966736 10.003108 5.810486 7.905452 7.904236 C 5.807796 10.001892 2.964046 11.18158 -0.000797789 11.18158 C -2.965642 11.18158 -5.809392 10.001892 -7.907048 7.904236 C -10.000798 5.810486 -11.180485 2.966736 -11.180485 0.00189222 C -11.180485 -2.966858 -10.000798 -5.810608 -7.907048 -7.904358 C -5.809392 -10.002014 -2.965642 -11.181702 -0.000797789 -11.181702 Z M -0.000797789 -11.181702 "
     transform="matrix(1, 0, 0, -1, 40.60236, 165.220642)"
     id="path25" />
  <path
     fill-rule="nonzero"
     fill="rgb(52.940369%, 80.783081%, 92.155457%)"
     fill-opacity="1"
     stroke-width="1"
     stroke-linecap="butt"
     stroke-linejoin="round"
     stroke="rgb(52.940369%, 80.783081%, 92.155457%)"
     stroke-opacity="1"
     stroke-miterlimit="10"
     d="M -0.00161415 -11.182223 C 2.96323 -11.182223 5.810886 -10.002535 7.904636 -7.904879 C 10.002292 -5.807223 11.18198 -2.963473 11.18198 0.00137125 C 11.18198 2.966215 10.002292 5.809965 7.904636 7.907621 C 5.810886 10.001371 2.96323 11.181059 -0.00161415 11.181059 C -2.966458 11.181059 -5.810208 10.001371 -7.903958 7.907621 C -10.001614 5.809965 -11.181302 2.966215 -11.181302 0.00137125 C -11.181302 -2.963473 -10.001614 -5.807223 -7.903958 -7.904879 C -5.810208 -10.002535 -2.966458 -11.182223 -0.00161415 -11.182223 Z M -0.00161415 -11.182223 "
     transform="matrix(1, 0, 0, -1, 18.743802, 111.407621)"
     id="path26" />
  <path
     fill-rule="nonzero"
     fill="rgb(52.940369%, 80.783081%, 92.155457%)"
     fill-opacity="1"
     stroke-width="1"
     stroke-linecap="butt"
     stroke-linejoin="round"
     stroke="rgb(52.940369%, 80.783081%, 92.155457%)"
     stroke-opacity="1"
     stroke-miterlimit="10"
     d="M 0.0000302609 -11.179695 C 2.964874 -11.179695 5.808624 -10.003913 7.90628 -7.906257 C 10.003937 -5.808601 11.179718 -2.964851 11.179718 -0.0000070831 C 11.179718 2.964837 10.003937 5.808587 7.90628 7.906243 C 5.808624 10.003899 2.964874 11.17968 0.0000302609 11.17968 C -2.964813 11.17968 -5.808563 10.003899 -7.90622 7.906243 C -10.003876 5.808587 -11.179657 2.964837 -11.179657 -0.0000070831 C -11.179657 -2.964851 -10.003876 -5.808601 -7.90622 -7.906257 C -5.808563 -10.003913 -2.964813 -11.179695 0.0000302609 -11.179695 Z M 0.0000302609 -11.179695 "
     transform="matrix(1, 0, 0, -1, 30.894501, 55.464837)"
     id="path27" />
  <path
     fill-rule="nonzero"
     fill="rgb(52.940369%, 80.783081%, 92.155457%)"
     fill-opacity="1"
     stroke-width="1"
     stroke-linecap="butt"
     stroke-linejoin="round"
     stroke="rgb(52.940369%, 80.783081%, 92.155457%)"
     stroke-opacity="1"
     stroke-miterlimit="10"
     d="M -0.00151808 -11.179207 C 2.963326 -11.179207 5.810982 -10.003426 7.904732 -7.90577 C 10.002388 -5.808113 11.182076 -2.964363 11.182076 0.000480486 C 11.182076 2.965324 10.002388 5.809074 7.904732 7.90673 C 5.810982 10.00048 2.963326 11.180168 -0.00151808 11.180168 C -2.966362 11.180168 -5.810112 10.00048 -7.903862 7.90673 C -10.001518 5.809074 -11.181206 2.965324 -11.181206 0.000480486 C -11.181206 -2.964363 -10.001518 -5.808113 -7.903862 -7.90577 C -5.810112 -10.003426 -2.966362 -11.179207 -0.00151808 -11.179207 Z M -0.00151808 -11.179207 "
     transform="matrix(1, 0, 0, -1, 73.356987, 19.68798)"
     id="path28" />
  <path
     fill-rule="nonzero"
     fill="rgb(52.940369%, 80.783081%, 92.155457%)"
     fill-opacity="1"
     stroke-width="1"
     stroke-linecap="butt"
     stroke-linejoin="round"
     stroke="rgb(52.940369%, 80.783081%, 92.155457%)"
     stroke-opacity="1"
     stroke-miterlimit="10"
     d="M -0.000480613 -11.18198 C 2.964363 -11.18198 5.808113 -10.002292 7.905769 -7.904636 C 10.003426 -5.810886 11.179207 -2.96323 11.179207 0.00161415 C 11.179207 2.966458 10.003426 5.810208 7.905769 7.903958 C 5.808113 10.001614 2.964363 11.181302 -0.000480613 11.181302 C -2.965324 11.181302 -5.809074 10.001614 -7.906731 7.903958 C -10.000481 5.810208 -11.180168 2.966458 -11.180168 0.00161415 C -11.180168 -2.96323 -10.000481 -5.810886 -7.906731 -7.904636 C -5.809074 -10.002292 -2.965324 -11.18198 -0.000480613 -11.18198 Z M -0.000480613 -11.18198 "
     transform="matrix(1, 0, 0, -1, 128.566887, 18.743802)"
     id="path29" />
  <path
     fill-rule="nonzero"
     fill="rgb(52.940369%, 80.783081%, 92.155457%)"
     fill-opacity="1"
     stroke-width="1"
     stroke-linecap="butt"
     stroke-linejoin="round"
     stroke="rgb(52.940369%, 80.783081%, 92.155457%)"
     stroke-opacity="1"
     stroke-miterlimit="10"
     d="M -0.00187949 -11.179946 C 2.966871 -11.179946 5.810621 -10.004165 7.904371 -7.906508 C 10.002027 -5.808852 11.181714 -2.965102 11.181714 -0.000258294 C 11.181714 2.964585 10.002027 5.808335 7.904371 7.905992 C 5.810621 10.003648 2.966871 11.179429 -0.00187949 11.179429 C -2.966723 11.179429 -5.810473 10.003648 -7.904223 7.905992 C -10.001879 5.808335 -11.181567 2.964585 -11.181567 -0.000258294 C -11.181567 -2.965102 -10.001879 -5.808852 -7.904223 -7.906508 C -5.810473 -10.004165 -2.966723 -11.179946 -0.00187949 -11.179946 Z M -0.00187949 -11.179946 "
     transform="matrix(1, 0, 0, -1, 175.353442, 51.10521)"
     id="path30" />
  <g
     fill="rgb(0%, 0%, 0%)"
     fill-opacity="1"
     id="g30">
    <use
       xlink:href="#glyph-0-0"
       x="192.037448"
       y="108.847054"
       id="use30" />
  </g>
  <g
     fill="rgb(0%, 0%, 0%)"
     fill-opacity="1"
     id="g31">
    <use
       xlink:href="#glyph-0-1"
       x="179.957496"
       y="164.930207"
       id="use31" />
  </g>
  <g
     fill="rgb(0%, 0%, 0%)"
     fill-opacity="1"
     id="g32">
    <use
       xlink:href="#glyph-0-2"
       x="137.294712"
       y="200.410332"
       id="use32" />
  </g>
  <g
     fill="rgb(0%, 0%, 0%)"
     fill-opacity="1"
     id="g33">
    <use
       xlink:href="#glyph-0-3"
       x="81.962384"
       y="201.389011"
       id="use33" />
  </g>
  <g
     fill="rgb(0%, 0%, 0%)"
     fill-opacity="1"
     id="g34">
    <use
       xlink:href="#glyph-0-4"
       x="35.38361"
       y="169.353455"
       id="use34" />
  </g>
  <g
     fill="rgb(0%, 0%, 0%)"
     fill-opacity="1"
     id="g35">
    <use
       xlink:href="#glyph-0-5"
       x="13.525052"
       y="115.540434"
       id="use35" />
  </g>
  <g
     fill="rgb(0%, 0%, 0%)"
     fill-opacity="1"
     id="g36">
    <use
       xlink:href="#glyph-0-6"
       x="25.675751"
       y="59.597649"
       id="use36" />
  </g>
  <g
     fill="rgb(0%, 0%, 0%)"
     fill-opacity="1"
     id="g37">
    <use
       xlink:href="#glyph-0-7"
       x="68.138237"
       y="23.820793"
       id="use37" />
  </g>
  <g
     fill="rgb(0%, 0%, 0%)"
     fill-opacity="1"
     id="g38">
    <use
       xlink:href="#glyph-0-8"
       x="123.348137"
       y="22.876614"
       id="use38" />
  </g>
  <g
     fill="rgb(0%, 0%, 0%)"
     fill-opacity="1"
     id="g40">
    <use
       xlink:href="#glyph-0-0"
       x="164.915942"
       y="55.238023"
       id="use39" />
    <use
       xlink:href="#glyph-0-9"
       x="175.355942"
       y="55.238023"
       id="use40" />
  </g>
</svg>
