<?xml version="1.0" encoding="UTF-8" standalone="no"?>
<svg
   width="216pt"
   height="216pt"
   viewBox="0 0 216 216"
   version="1.1"
   id="svg40"
   sodipodi:docname="exp003_adj.svg"
   inkscape:version="1.4.2 (f4327f4, 2025-05-13)"
   xmlns:inkscape="http://www.inkscape.org/namespaces/inkscape"
   xmlns:sodipodi="http://sodipodi.sourceforge.net/DTD/sodipodi-0.dtd"
   xmlns:xlink="http://www.w3.org/1999/xlink"
   xmlns="http://www.w3.org/2000/svg"
   xmlns:svg="http://www.w3.org/2000/svg">
  <sodipodi:namedview
     id="namedview40"
     pagecolor="#ffffff"
     bordercolor="#000000"
     borderopacity="0.25"
     inkscape:showpageshadow="2"
     inkscape:pageopacity="0.0"
     inkscape:pagecheckerboard="0"
     inkscape:deskcolor="#d1d1d1"
     inkscape:document-units="pt"
     inkscape:zoom="2.6840278"
     inkscape:cx="144"
     inkscape:cy="144"
     inkscape:window-width="1920"
     inkscape:window-height="991"
     inkscape:window-x="-9"
     inkscape:window-y="1341"
     inkscape:window-maximized="1"
     inkscape:current-layer="svg40" />
  <defs
     id="defs10">
    <g
       id="g10">
      <g
         id="glyph-0-0">
        <path
           d="M 1.753906 -1.949219 L 4.246094 -1.949219 L 4.246094 -9.015625 L 1.695312 -8.488281 L 1.695312 -10.410156 L 4.230469 -10.933594 L 6.914062 -10.933594 L 6.914062 -1.949219 L 9.40625 -1.949219 L 9.40625 0 L 1.753906 0 Z M 1.753906 -1.949219 "
           id="path1" />
      </g>
      <g
         id="glyph-0-1">
        <path
           d="M 4.320312 -2.070312 L 9.136719 -2.070312 L 9.136719 0 L 1.183594 0 L 1.183594 -2.070312 L 5.175781 -5.59375 C 5.535156 -5.910156 5.789062 -6.226562 5.96875 -6.539062 C 6.136719 -6.839844 6.226562 -7.171875 6.226562 -7.5 C 6.226562 -8.011719 6.046875 -8.414062 5.699219 -8.730469 C 5.355469 -9.046875 4.90625 -9.210938 4.335938 -9.210938 C 3.886719 -9.210938 3.40625 -9.105469 2.894531 -8.925781 C 2.371094 -8.730469 1.816406 -8.445312 1.214844 -8.085938 L 1.214844 -10.484375 C 1.84375 -10.695312 2.476562 -10.84375 3.105469 -10.964844 C 3.71875 -11.070312 4.320312 -11.128906 4.921875 -11.128906 C 6.226562 -11.128906 7.246094 -10.828125 7.964844 -10.261719 C 8.683594 -9.691406 9.058594 -8.878906 9.058594 -7.859375 C 9.058594 -7.261719 8.894531 -6.691406 8.59375 -6.179688 C 8.28125 -5.671875 7.636719 -4.980469 6.660156 -4.125 Z M 4.320312 -2.070312 "
           id="path2" />
      </g>
      <g
         id="glyph-0-2">
        <path
           d="M 6.988281 -5.894531 C 7.726562 -5.699219 8.28125 -5.371094 8.671875 -4.90625 C 9.046875 -4.425781 9.238281 -3.824219 9.238281 -3.105469 C 9.238281 -2.023438 8.820312 -1.199219 7.996094 -0.644531 C 7.15625 -0.0742188 5.953125 0.195312 4.363281 0.195312 C 3.796875 0.195312 3.238281 0.148438 2.671875 0.0585938 C 2.101562 -0.015625 1.546875 -0.148438 1.003906 -0.328125 L 1.003906 -2.503906 C 1.53125 -2.234375 2.054688 -2.039062 2.578125 -1.90625 C 3.089844 -1.769531 3.601562 -1.710938 4.109375 -1.710938 C 4.859375 -1.710938 5.429688 -1.828125 5.820312 -2.101562 C 6.210938 -2.355469 6.421875 -2.730469 6.421875 -3.210938 C 6.421875 -3.703125 6.210938 -4.078125 5.804688 -4.335938 C 5.398438 -4.589844 4.800781 -4.726562 4.003906 -4.726562 L 2.878906 -4.726562 L 2.878906 -6.539062 L 4.066406 -6.539062 C 4.769531 -6.539062 5.296875 -6.644531 5.640625 -6.871094 C 5.984375 -7.078125 6.164062 -7.425781 6.164062 -7.890625 C 6.164062 -8.308594 5.984375 -8.625 5.65625 -8.863281 C 5.324219 -9.089844 4.84375 -9.210938 4.230469 -9.210938 C 3.78125 -9.210938 3.316406 -9.148438 2.851562 -9.046875 C 2.386719 -8.941406 1.921875 -8.789062 1.46875 -8.59375 L 1.46875 -10.664062 C 2.023438 -10.816406 2.578125 -10.933594 3.121094 -11.011719 C 3.660156 -11.085938 4.199219 -11.128906 4.738281 -11.128906 C 6.148438 -11.128906 7.214844 -10.890625 7.921875 -10.425781 C 8.625 -9.960938 8.984375 -9.253906 8.984375 -8.324219 C 8.984375 -7.679688 8.804688 -7.15625 8.476562 -6.75 C 8.144531 -6.34375 7.648438 -6.058594 6.988281 -5.894531 Z M 6.988281 -5.894531 "
           id="path3" />
      </g>
      <g
         id="glyph-0-3">
        <path
           d="M 5.519531 -8.609375 L 2.429688 -4.035156 L 5.519531 -4.035156 Z M 5.054688 -10.933594 L 8.191406 -10.933594 L 8.191406 -4.035156 L 9.75 -4.035156 L 9.75 -1.996094 L 8.191406 -1.996094 L 8.191406 0 L 5.519531 0 L 5.519531 -1.996094 L 0.675781 -1.996094 L 0.675781 -4.410156 Z M 5.054688 -10.933594 "
           id="path4" />
      </g>
      <g
         id="glyph-0-4">
        <path
           d="M 1.589844 -10.933594 L 8.59375 -10.933594 L 8.59375 -8.863281 L 3.839844 -8.863281 L 3.839844 -7.171875 C 4.050781 -7.230469 4.261719 -7.273438 4.484375 -7.304688 C 4.695312 -7.335938 4.921875 -7.351562 5.160156 -7.351562 C 6.496094 -7.351562 7.53125 -7.003906 8.28125 -6.34375 C 9.015625 -5.683594 9.390625 -4.753906 9.390625 -3.570312 C 9.390625 -2.386719 8.984375 -1.453125 8.175781 -0.796875 C 7.363281 -0.136719 6.238281 0.195312 4.816406 0.195312 C 4.183594 0.195312 3.570312 0.136719 2.96875 0.015625 C 2.355469 -0.0898438 1.753906 -0.269531 1.15625 -0.511719 L 1.15625 -2.730469 C 1.753906 -2.386719 2.308594 -2.128906 2.851562 -1.964844 C 3.390625 -1.785156 3.886719 -1.710938 4.363281 -1.710938 C 5.039062 -1.710938 5.578125 -1.875 5.96875 -2.203125 C 6.359375 -2.535156 6.570312 -3 6.570312 -3.570312 C 6.570312 -4.140625 6.359375 -4.589844 5.96875 -4.921875 C 5.578125 -5.25 5.039062 -5.429688 4.363281 -5.429688 C 3.945312 -5.429688 3.511719 -5.371094 3.058594 -5.265625 C 2.609375 -5.160156 2.113281 -4.996094 1.589844 -4.785156 Z M 1.589844 -10.933594 "
           id="path5" />
      </g>
      <g
         id="glyph-0-5">
        <path
           d="M 5.429688 -5.398438 C 4.933594 -5.398438 4.558594 -5.234375 4.320312 -4.921875 C 4.066406 -4.589844 3.945312 -4.109375 3.945312 -3.480469 C 3.945312 -2.835938 4.066406 -2.355469 4.320312 -2.039062 C 4.558594 -1.710938 4.933594 -1.558594 5.429688 -1.558594 C 5.925781 -1.558594 6.300781 -1.710938 6.539062 -2.039062 C 6.78125 -2.355469 6.914062 -2.835938 6.914062 -3.480469 C 6.914062 -4.109375 6.78125 -4.589844 6.539062 -4.921875 C 6.300781 -5.234375 5.925781 -5.398438 5.429688 -5.398438 Z M 8.910156 -10.648438 L 8.910156 -8.625 C 8.445312 -8.835938 8.011719 -9 7.605469 -9.105469 C 7.183594 -9.210938 6.796875 -9.269531 6.40625 -9.269531 C 5.566406 -9.269531 4.90625 -9.03125 4.441406 -8.566406 C 3.960938 -8.101562 3.691406 -7.410156 3.613281 -6.496094 C 3.929688 -6.734375 4.273438 -6.914062 4.664062 -7.035156 C 5.039062 -7.15625 5.445312 -7.214844 5.894531 -7.214844 C 7.003906 -7.214844 7.90625 -6.886719 8.59375 -6.226562 C 9.285156 -5.566406 9.628906 -4.710938 9.628906 -3.660156 C 9.628906 -2.488281 9.238281 -1.546875 8.476562 -0.855469 C 7.710938 -0.148438 6.691406 0.195312 5.398438 0.195312 C 3.976562 0.195312 2.878906 -0.269531 2.101562 -1.230469 C 1.320312 -2.191406 0.929688 -3.539062 0.929688 -5.308594 C 0.929688 -7.109375 1.378906 -8.535156 2.296875 -9.570312 C 3.195312 -10.589844 4.453125 -11.113281 6.046875 -11.113281 C 6.539062 -11.113281 7.019531 -11.070312 7.5 -10.996094 C 7.980469 -10.921875 8.445312 -10.800781 8.910156 -10.648438 Z M 8.910156 -10.648438 "
           id="path6" />
      </g>
      <g
         id="glyph-0-6">
        <path
           d="M 1.003906 -10.933594 L 9.238281 -10.933594 L 9.238281 -9.34375 L 4.980469 0 L 2.234375 0 L 6.269531 -8.863281 L 1.003906 -8.863281 Z M 1.003906 -10.933594 "
           id="path7" />
      </g>
      <g
         id="glyph-0-7">
        <path
           d="M 5.21875 -4.890625 C 4.679688 -4.890625 4.273438 -4.738281 4.003906 -4.453125 C 3.71875 -4.171875 3.585938 -3.765625 3.585938 -3.226562 C 3.585938 -2.683594 3.71875 -2.265625 4.003906 -1.980469 C 4.273438 -1.695312 4.679688 -1.558594 5.21875 -1.558594 C 5.730469 -1.558594 6.136719 -1.695312 6.421875 -1.980469 C 6.691406 -2.265625 6.839844 -2.683594 6.839844 -3.226562 C 6.839844 -3.765625 6.691406 -4.171875 6.421875 -4.453125 C 6.136719 -4.738281 5.730469 -4.890625 5.21875 -4.890625 Z M 3.164062 -5.820312 C 2.503906 -6.015625 1.996094 -6.316406 1.664062 -6.734375 C 1.320312 -7.15625 1.15625 -7.664062 1.15625 -8.296875 C 1.15625 -9.226562 1.5 -9.929688 2.191406 -10.410156 C 2.878906 -10.890625 3.886719 -11.128906 5.21875 -11.128906 C 6.539062 -11.128906 7.546875 -10.890625 8.234375 -10.410156 C 8.925781 -9.929688 9.269531 -9.226562 9.269531 -8.296875 C 9.269531 -7.664062 9.089844 -7.15625 8.761719 -6.734375 C 8.414062 -6.316406 7.921875 -6.015625 7.261719 -5.820312 C 7.996094 -5.609375 8.550781 -5.28125 8.941406 -4.816406 C 9.316406 -4.351562 9.511719 -3.765625 9.511719 -3.074219 C 9.511719 -1.996094 9.148438 -1.171875 8.429688 -0.628906 C 7.710938 -0.0742188 6.628906 0.195312 5.21875 0.195312 C 3.796875 0.195312 2.714844 -0.0742188 1.996094 -0.628906 C 1.273438 -1.171875 0.914062 -1.996094 0.914062 -3.074219 C 0.914062 -3.765625 1.09375 -4.351562 1.484375 -4.816406 C 1.859375 -5.28125 2.414062 -5.609375 3.164062 -5.820312 Z M 3.824219 -8.011719 C 3.824219 -7.574219 3.945312 -7.246094 4.183594 -7.003906 C 4.425781 -6.765625 4.769531 -6.660156 5.21875 -6.660156 C 5.65625 -6.660156 6 -6.765625 6.238281 -7.003906 C 6.480469 -7.246094 6.601562 -7.574219 6.601562 -8.011719 C 6.601562 -8.445312 6.480469 -8.773438 6.238281 -9.015625 C 6 -9.238281 5.65625 -9.359375 5.21875 -9.359375 C 4.769531 -9.359375 4.425781 -9.238281 4.183594 -9 C 3.945312 -8.761719 3.824219 -8.429688 3.824219 -8.011719 Z M 3.824219 -8.011719 "
           id="path8" />
      </g>
      <g
         id="glyph-0-8">
        <path
           d="M 1.5 -0.238281 L 1.5 -2.265625 C 1.949219 -2.054688 2.371094 -1.890625 2.789062 -1.785156 C 3.195312 -1.679688 3.601562 -1.636719 4.003906 -1.636719 C 4.84375 -1.636719 5.488281 -1.859375 5.96875 -2.324219 C 6.433594 -2.789062 6.703125 -3.480469 6.796875 -4.410156 C 6.464844 -4.171875 6.105469 -3.976562 5.730469 -3.855469 C 5.355469 -3.734375 4.949219 -3.675781 4.515625 -3.675781 C 3.390625 -3.675781 2.488281 -3.988281 1.800781 -4.648438 C 1.109375 -5.296875 0.78125 -6.148438 0.78125 -7.230469 C 0.78125 -8.398438 1.15625 -9.34375 1.921875 -10.050781 C 2.683594 -10.753906 3.703125 -11.113281 4.996094 -11.113281 C 6.421875 -11.113281 7.53125 -10.636719 8.308594 -9.675781 C 9.089844 -8.714844 9.480469 -7.351562 9.480469 -5.59375 C 9.480469 -3.78125 9.015625 -2.355469 8.101562 -1.335938 C 7.183594 -0.316406 5.941406 0.195312 4.351562 0.195312 C 3.839844 0.195312 3.34375 0.148438 2.878906 0.0898438 C 2.398438 0.015625 1.949219 -0.0898438 1.5 -0.238281 Z M 4.980469 -5.503906 C 5.460938 -5.503906 5.835938 -5.65625 6.089844 -5.984375 C 6.328125 -6.300781 6.464844 -6.78125 6.464844 -7.425781 C 6.464844 -8.054688 6.328125 -8.535156 6.089844 -8.863281 C 5.835938 -9.179688 5.460938 -9.34375 4.980469 -9.34375 C 4.484375 -9.34375 4.109375 -9.179688 3.871094 -8.863281 C 3.613281 -8.535156 3.496094 -8.054688 3.496094 -7.425781 C 3.496094 -6.78125 3.613281 -6.300781 3.871094 -5.984375 C 4.109375 -5.65625 4.484375 -5.503906 4.980469 -5.503906 Z M 4.980469 -5.503906 "
           id="path9" />
      </g>
      <g
         id="glyph-0-9">
        <path
           d="M 6.898438 -5.476562 C 6.898438 -6.839844 6.765625 -7.800781 6.511719 -8.371094 C 6.253906 -8.925781 5.820312 -9.210938 5.21875 -9.210938 C 4.621094 -9.210938 4.183594 -8.925781 3.929688 -8.371094 C 3.660156 -7.800781 3.539062 -6.839844 3.539062 -5.476562 C 3.539062 -4.09375 3.660156 -3.121094 3.929688 -2.550781 C 4.183594 -1.980469 4.621094 -1.710938 5.21875 -1.710938 C 5.820312 -1.710938 6.238281 -1.980469 6.511719 -2.550781 C 6.765625 -3.121094 6.898438 -4.09375 6.898438 -5.476562 Z M 9.71875 -5.460938 C 9.71875 -3.644531 9.328125 -2.25 8.550781 -1.273438 C 7.769531 -0.285156 6.660156 0.195312 5.21875 0.195312 C 3.78125 0.195312 2.671875 -0.285156 1.890625 -1.273438 C 1.109375 -2.25 0.71875 -3.644531 0.71875 -5.460938 C 0.71875 -7.261719 1.109375 -8.65625 1.890625 -9.644531 C 2.671875 -10.636719 3.78125 -11.128906 5.21875 -11.128906 C 6.660156 -11.128906 7.769531 -10.636719 8.550781 -9.644531 C 9.328125 -8.65625 9.71875 -7.261719 9.71875 -5.460938 Z M 9.71875 -5.460938 "
           id="path10" />
      </g>
    </g>
  </defs>
  <rect
     x="-21.6"
     y="-21.6"
     width="259.2"
     height="259.2"
     fill="rgb(100%, 100%, 100%)"
     fill-opacity="1"
     id="rect10" />
  <path
     fill="none"
     stroke-width="1"
     stroke-linecap="butt"
     stroke-linejoin="round"
     stroke="rgb(0%, 0%, 0%)"
     stroke-opacity="1"
     stroke-miterlimit="10"
     d="M 48.464844 131.714844 L 47.347656 197.257812 "
     transform="matrix(1, 0, 0, -1, 0, 216)"
     id="path11" />
  <path
     fill="none"
     stroke-width="1"
     stroke-linecap="butt"
     stroke-linejoin="round"
     stroke="rgb(0%, 0%, 0%)"
     stroke-opacity="1"
     stroke-miterlimit="10"
     d="M 48.464844 131.714844 L 18.742188 163.246094 "
     transform="matrix(1, 0, 0, -1, 0, 216)"
     id="path12" />
  <path
     fill="none"
     stroke-width="1"
     stroke-linecap="butt"
     stroke-linejoin="round"
     stroke="rgb(0%, 0%, 0%)"
     stroke-opacity="1"
     stroke-miterlimit="10"
     d="M 48.464844 131.714844 L 86.632812 91.007812 "
     transform="matrix(1, 0, 0, -1, 0, 216)"
     id="path13" />
  <path
     fill="none"
     stroke-width="1"
     stroke-linecap="butt"
     stroke-linejoin="round"
     stroke="rgb(0%, 0%, 0%)"
     stroke-opacity="1"
     stroke-miterlimit="10"
     d="M 48.464844 131.714844 L 31.707031 73.300781 "
     transform="matrix(1, 0, 0, -1, 0, 216)"
     id="path14" />
  <path
     fill="none"
     stroke-width="1"
     stroke-linecap="butt"
     stroke-linejoin="round"
     stroke="rgb(0%, 0%, 0%)"
     stroke-opacity="1"
     stroke-miterlimit="10"
     d="M 197.257812 83.902344 L 166.714844 86.273438 "
     transform="matrix(1, 0, 0, -1, 0, 216)"
     id="path15" />
  <path
     fill="none"
     stroke-width="1"
     stroke-linecap="butt"
     stroke-linejoin="round"
     stroke="rgb(0%, 0%, 0%)"
     stroke-opacity="1"
     stroke-miterlimit="10"
     d="M 166.714844 86.273438 L 129.347656 88.992188 "
     transform="matrix(1, 0, 0, -1, 0, 216)"
     id="path16" />
  <path
     fill="none"
     stroke-width="1"
     stroke-linecap="butt"
     stroke-linejoin="round"
     stroke="rgb(0%, 0%, 0%)"
     stroke-opacity="1"
     stroke-miterlimit="10"
     d="M 129.347656 88.992188 L 86.632812 91.007812 "
     transform="matrix(1, 0, 0, -1, 0, 216)"
     id="path17" />
  <path
     fill="none"
     stroke-width="1"
     stroke-linecap="butt"
     stroke-linejoin="round"
     stroke="rgb(0%, 0%, 0%)"
     stroke-opacity="1"
     stroke-miterlimit="10"
     d="M 86.632812 91.007812 L 69.941406 33.027344 "
     transform="matrix(1, 0, 0, -1, 0, 216)"
     id="path18" />
  <path
     fill="none"
     stroke-width="1"
     stroke-linecap="butt"
     stroke-linejoin="round"
     stroke="rgb(0%, 0%, 0%)"
     stroke-opacity="1"
     stroke-miterlimit="10"
     d="M 69.941406 33.027344 L 41.480469 18.742188 "
     transform="matrix(1, 0, 0, -1, 0, 216)"
     id="path19" />
  <path
     fill="none"
     stroke-width="1"
     stroke-linecap="butt"
     stroke-linejoin="round"
     stroke="rgb(0%, 0%, 0%)"
     stroke-opacity="1"
     stroke-miterlimit="10"
     d="M 41.480469 18.742188 L 31.707031 73.300781 "
     transform="matrix(1, 0, 0, -1, 0, 216)"
     id="path20" />
  <path
     fill-rule="nonzero"
     fill="rgb(52.940369%, 80.783081%, 92.155457%)"
     fill-opacity="1"
     stroke-width="1"
     stroke-linecap="butt"
     stroke-linejoin="round"
     stroke="rgb(52.940369%, 80.783081%, 92.155457%)"
     stroke-opacity="1"
     stroke-miterlimit="10"
     d="M 0.000441224 -11.181023 C 2.965285 -11.181023 5.809035 -10.001336 7.906691 -7.907586 C 10.000441 -5.809929 11.180129 -2.966179 11.180129 -0.00133566 C 11.180129 2.963508 10.000441 5.807258 7.906691 7.904914 C 5.809035 10.002571 2.965285 11.182258 0.000441224 11.182258 C -2.964403 11.182258 -5.808153 10.002571 -7.905809 7.904914 C -10.003465 5.807258 -11.179246 2.963508 -11.179246 -0.00133566 C -11.179246 -2.966179 -10.003465 -5.809929 -7.905809 -7.907586 C -5.808153 -10.001336 -2.964403 -11.181023 0.000441224 -11.181023 Z M 0.000441224 -11.181023 "
     transform="matrix(1, 0, 0, -1, 48.464403, 84.283821)"
     id="path21" />
  <path
     fill-rule="nonzero"
     fill="rgb(52.940369%, 80.783081%, 92.155457%)"
     fill-opacity="1"
     stroke-width="1"
     stroke-linecap="butt"
     stroke-linejoin="round"
     stroke="rgb(52.940369%, 80.783081%, 92.155457%)"
     stroke-opacity="1"
     stroke-miterlimit="10"
     d="M -0.0017192 -11.18198 C 2.963125 -11.18198 5.810781 -10.002292 7.904531 -7.904636 C 10.002187 -5.810886 11.181875 -2.96323 11.181875 0.00161415 C 11.181875 2.966458 10.002187 5.810208 7.904531 7.903958 C 5.810781 10.001614 2.963125 11.181302 -0.0017192 11.181302 C -2.966563 11.181302 -5.810313 10.001614 -7.904063 7.903958 C -10.001719 5.810208 -11.181407 2.966458 -11.181407 0.00161415 C -11.181407 -2.96323 -10.001719 -5.810886 -7.904063 -7.904636 C -5.810313 -10.002292 -2.966563 -11.18198 -0.0017192 -11.18198 Z M -0.0017192 -11.18198 "
     transform="matrix(1, 0, 0, -1, 47.349375, 18.743802)"
     id="path22" />
  <path
     fill-rule="nonzero"
     fill="rgb(52.940369%, 80.783081%, 92.155457%)"
     fill-opacity="1"
     stroke-width="1"
     stroke-linecap="butt"
     stroke-linejoin="round"
     stroke="rgb(52.940369%, 80.783081%, 92.155457%)"
     stroke-opacity="1"
     stroke-miterlimit="10"
     d="M -0.00161415 -11.180979 C 2.96323 -11.180979 5.810886 -10.001291 7.904636 -7.907541 C 10.002292 -5.809885 11.18198 -2.966135 11.18198 -0.00129134 C 11.18198 2.963552 10.002292 5.807302 7.904636 7.904959 C 5.810886 10.002615 2.96323 11.178396 -0.00161415 11.178396 C -2.966458 11.178396 -5.810208 10.002615 -7.903958 7.904959 C -10.001614 5.807302 -11.181302 2.963552 -11.181302 -0.00129134 C -11.181302 -2.966135 -10.001614 -5.809885 -7.903958 -7.907541 C -5.810208 -10.001291 -2.966458 -11.180979 -0.00161415 -11.180979 Z M -0.00161415 -11.180979 "
     transform="matrix(1, 0, 0, -1, 18.743802, 52.752615)"
     id="path23" />
  <path
     fill-rule="nonzero"
     fill="rgb(52.940369%, 80.783081%, 92.155457%)"
     fill-opacity="1"
     stroke-width="1"
     stroke-linecap="butt"
     stroke-linejoin="round"
     stroke="rgb(52.940369%, 80.783081%, 92.155457%)"
     stroke-opacity="1"
     stroke-miterlimit="10"
     d="M 0.00161415 -11.178452 C 2.966458 -11.178452 5.810208 -10.002671 7.903958 -7.905014 C 10.001614 -5.807358 11.181302 -2.963608 11.181302 0.00123561 C 11.181302 2.966079 10.001614 5.809829 7.903958 7.907486 C 5.810208 10.001236 2.966458 11.180923 0.00161415 11.180923 C -2.96323 11.180923 -5.810886 10.001236 -7.904636 7.907486 C -10.002292 5.809829 -11.18198 2.966079 -11.18198 0.00123561 C -11.18198 -2.963608 -10.002292 -5.807358 -7.904636 -7.905014 C -5.810886 -10.002671 -2.96323 -11.178452 0.00161415 -11.178452 Z M 0.00161415 -11.178452 "
     transform="matrix(1, 0, 0, -1, 197.256198, 132.098892)"
     id="path24" />
  <path
     fill-rule="nonzero"
     fill="rgb(52.940369%, 80.783081%, 92.155457%)"
     fill-opacity="1"
     stroke-width="1"
     stroke-linecap="butt"
     stroke-linejoin="round"
     stroke="rgb(52.940369%, 80.783081%, 92.155457%)"
     stroke-opacity="1"
     stroke-miterlimit="10"
     d="M 0.00145913 -11.179166 C 2.966303 -11.179166 5.810053 -10.003385 7.903803 -7.905729 C 10.001459 -5.808073 11.181147 -2.964323 11.181147 0.000521241 C 11.181147 2.965365 10.001459 5.809115 7.903803 7.906771 C 5.810053 10.000521 2.966303 11.180209 0.00145913 11.180209 C -2.963385 11.180209 -5.807135 10.000521 -7.904791 7.906771 C -10.002447 5.809115 -11.182135 2.965365 -11.182135 0.000521241 C -11.182135 -2.964323 -10.002447 -5.808073 -7.904791 -7.905729 C -5.807135 -10.003385 -2.963385 -11.179166 0.00145913 -11.179166 Z M 0.00145913 -11.179166 "
     transform="matrix(1, 0, 0, -1, 166.713385, 129.727084)"
     id="path25" />
  <path
     fill-rule="nonzero"
     fill="rgb(52.940369%, 80.783081%, 92.155457%)"
     fill-opacity="1"
     stroke-width="1"
     stroke-linecap="butt"
     stroke-linejoin="round"
     stroke="rgb(52.940369%, 80.783081%, 92.155457%)"
     stroke-opacity="1"
     stroke-miterlimit="10"
     d="M -0.0000030624 -11.181893 C 2.964841 -11.181893 5.808591 -10.002206 7.906247 -7.904549 C 10.003903 -5.810799 11.179684 -2.963143 11.179684 0.00170052 C 11.179684 2.966544 10.003903 5.810294 7.906247 7.904044 C 5.808591 10.001701 2.964841 11.181388 -0.0000030624 11.181388 C -2.964847 11.181388 -5.808597 10.001701 -7.906253 7.904044 C -10.003909 5.810294 -11.179691 2.966544 -11.179691 0.00170052 C -11.179691 -2.963143 -10.003909 -5.810799 -7.906253 -7.904549 C -5.808597 -10.002206 -2.964847 -11.181893 -0.0000030624 -11.181893 Z M -0.0000030624 -11.181893 "
     transform="matrix(1, 0, 0, -1, 129.347659, 127.009513)"
     id="path26" />
  <path
     fill-rule="nonzero"
     fill="rgb(52.940369%, 80.783081%, 92.155457%)"
     fill-opacity="1"
     stroke-width="1"
     stroke-linecap="butt"
     stroke-linejoin="round"
     stroke="rgb(52.940369%, 80.783081%, 92.155457%)"
     stroke-opacity="1"
     stroke-miterlimit="10"
     d="M 0.0016664 -11.180081 C 2.96651 -11.180081 5.81026 -10.000394 7.90401 -7.906644 C 10.001666 -5.808987 11.181354 -2.965237 11.181354 -0.000393749 C 11.181354 2.96445 10.001666 5.8082 7.90401 7.905856 C 5.81026 10.003513 2.96651 11.179294 0.0016664 11.179294 C -2.963177 11.179294 -5.810834 10.003513 -7.904584 7.905856 C -10.00224 5.8082 -11.181927 2.96445 -11.181927 -0.000393749 C -11.181927 -2.965237 -10.00224 -5.808987 -7.904584 -7.906644 C -5.810834 -10.000394 -2.963177 -11.180081 0.0016664 -11.180081 Z M 0.0016664 -11.180081 "
     transform="matrix(1, 0, 0, -1, 86.631146, 124.991794)"
     id="path27" />
  <path
     fill-rule="nonzero"
     fill="rgb(52.940369%, 80.783081%, 92.155457%)"
     fill-opacity="1"
     stroke-width="1"
     stroke-linecap="butt"
     stroke-linejoin="round"
     stroke="rgb(52.940369%, 80.783081%, 92.155457%)"
     stroke-opacity="1"
     stroke-miterlimit="10"
     d="M -0.000228546 -11.180562 C 2.964615 -11.180562 5.808365 -10.000874 7.906021 -7.907124 C 10.003678 -5.809468 11.179459 -2.965718 11.179459 -0.000874375 C 11.179459 2.963969 10.003678 5.807719 7.906021 7.905376 C 5.808365 10.003032 2.964615 11.178813 -0.000228546 11.178813 C -2.965072 11.178813 -5.808822 10.003032 -7.906479 7.905376 C -10.004135 5.807719 -11.179916 2.963969 -11.179916 -0.000874375 C -11.179916 -2.965718 -10.004135 -5.809468 -7.906479 -7.907124 C -5.808822 -10.000874 -2.965072 -11.180562 -0.000228546 -11.180562 Z M -0.000228546 -11.180562 "
     transform="matrix(1, 0, 0, -1, 69.941635, 182.971782)"
     id="path28" />
  <path
     fill-rule="nonzero"
     fill="rgb(52.940369%, 80.783081%, 92.155457%)"
     fill-opacity="1"
     stroke-width="1"
     stroke-linecap="butt"
     stroke-linejoin="round"
     stroke="rgb(52.940369%, 80.783081%, 92.155457%)"
     stroke-opacity="1"
     stroke-miterlimit="10"
     d="M -0.00182842 -11.181302 C 2.966922 -11.181302 5.810672 -10.001614 7.904422 -7.903958 C 10.002078 -5.810208 11.181765 -2.966458 11.181765 -0.00161415 C 11.181765 2.96323 10.002078 5.810886 7.904422 7.904636 C 5.810672 10.002292 2.966922 11.18198 -0.00182842 11.18198 C -2.966672 11.18198 -5.810422 10.002292 -7.904172 7.904636 C -10.001828 5.810886 -11.181516 2.96323 -11.181516 -0.00161415 C -11.181516 -2.966458 -10.001828 -5.810208 -7.904172 -7.903958 C -5.810422 -10.001614 -2.966672 -11.181302 -0.00182842 -11.181302 Z M -0.00182842 -11.181302 "
     transform="matrix(1, 0, 0, -1, 41.482297, 197.256198)"
     id="path29" />
  <path
     fill-rule="nonzero"
     fill="rgb(52.940369%, 80.783081%, 92.155457%)"
     fill-opacity="1"
     stroke-width="1"
     stroke-linecap="butt"
     stroke-linejoin="round"
     stroke="rgb(52.940369%, 80.783081%, 92.155457%)"
     stroke-opacity="1"
     stroke-miterlimit="10"
     d="M 0.000904557 -11.178806 C 2.965748 -11.178806 5.809498 -10.003024 7.907155 -7.905368 C 10.000905 -5.807712 11.180592 -2.963962 11.180592 0.00088192 C 11.180592 2.965726 10.000905 5.809476 7.907155 7.907132 C 5.809498 10.000882 2.965748 11.180569 0.000904557 11.180569 C -2.963939 11.180569 -5.807689 10.000882 -7.905345 7.907132 C -10.003002 5.809476 -11.178783 2.965726 -11.178783 0.00088192 C -11.178783 -2.963962 -10.003002 -5.807712 -7.905345 -7.905368 C -5.807689 -10.003024 -2.963939 -11.178806 0.000904557 -11.178806 Z M 0.000904557 -11.178806 "
     transform="matrix(1, 0, 0, -1, 31.706127, 142.700101)"
     id="path30" />
  <g
     fill="rgb(0%, 0%, 0%)"
     fill-opacity="1"
     id="g30">
    <use
       xlink:href="#glyph-0-0"
       x="43.245653"
       y="88.416633"
       id="use30" />
  </g>
  <g
     fill="rgb(0%, 0%, 0%)"
     fill-opacity="1"
     id="g31">
    <use
       xlink:href="#glyph-0-1"
       x="42.130625"
       y="22.876614"
       id="use31" />
  </g>
  <g
     fill="rgb(0%, 0%, 0%)"
     fill-opacity="1"
     id="g32">
    <use
       xlink:href="#glyph-0-2"
       x="13.525052"
       y="56.885427"
       id="use32" />
  </g>
  <g
     fill="rgb(0%, 0%, 0%)"
     fill-opacity="1"
     id="g33">
    <use
       xlink:href="#glyph-0-3"
       x="192.037448"
       y="136.231704"
       id="use33" />
  </g>
  <g
     fill="rgb(0%, 0%, 0%)"
     fill-opacity="1"
     id="g34">
    <use
       xlink:href="#glyph-0-4"
       x="161.494635"
       y="133.859896"
       id="use34" />
  </g>
  <g
     fill="rgb(0%, 0%, 0%)"
     fill-opacity="1"
     id="g35">
    <use
       xlink:href="#glyph-0-5"
       x="124.128909"
       y="131.142326"
       id="use35" />
  </g>
  <g
     fill="rgb(0%, 0%, 0%)"
     fill-opacity="1"
     id="g36">
    <use
       xlink:href="#glyph-0-6"
       x="81.412396"
       y="129.124606"
       id="use36" />
  </g>
  <g
     fill="rgb(0%, 0%, 0%)"
     fill-opacity="1"
     id="g37">
    <use
       xlink:href="#glyph-0-7"
       x="64.722885"
       y="187.104594"
       id="use37" />
  </g>
  <g
     fill="rgb(0%, 0%, 0%)"
     fill-opacity="1"
     id="g38">
    <use
       xlink:href="#glyph-0-8"
       x="36.263547"
       y="201.389011"
       id="use38" />
  </g>
  <g
     fill="rgb(0%, 0%, 0%)"
     fill-opacity="1"
     id="g40">
    <use
       xlink:href="#glyph-0-0"
       x="21.268627"
       y="146.832913"
       id="use39" />
    <use
       xlink:href="#glyph-0-9"
       x="31.708627"
       y="146.832913"
       id="use40" />
  </g>
</svg>
