<?xml version="1.0" encoding="UTF-8" standalone="no"?>
<svg
   width="216pt"
   height="216pt"
   viewBox="0 0 216 216"
   version="1.1"
   id="svg46"
   sodipodi:docname="exp004_adj.svg"
   inkscape:version="1.4.2 (f4327f4, 2025-05-13)"
   xmlns:inkscape="http://www.inkscape.org/namespaces/inkscape"
   xmlns:sodipodi="http://sodipodi.sourceforge.net/DTD/sodipodi-0.dtd"
   xmlns:xlink="http://www.w3.org/1999/xlink"
   xmlns="http://www.w3.org/2000/svg"
   xmlns:svg="http://www.w3.org/2000/svg">
  <sodipodi:namedview
     id="namedview46"
     pagecolor="#ffffff"
     bordercolor="#000000"
     borderopacity="0.25"
     inkscape:showpageshadow="2"
     inkscape:pageopacity="0.0"
     inkscape:pagecheckerboard="0"
     inkscape:deskcolor="#d1d1d1"
     inkscape:document-units="pt"
     inkscape:zoom="2.6840278"
     inkscape:cx="144"
     inkscape:cy="144"
     inkscape:window-width="1920"
     inkscape:window-height="991"
     inkscape:window-x="-9"
     inkscape:window-y="1341"
     inkscape:window-maximized="1"
     inkscape:current-layer="svg46" />
  <defs
     id="defs10">
    <g
       id="g10">
      <g
         id="glyph-0-0">
        <path
           d="M 1.753906 -1.949219 L 4.246094 -1.949219 L 4.246094 -9.015625 L 1.695312 -8.488281 L 1.695312 -10.410156 L 4.230469 -10.933594 L 6.914062 -10.933594 L 6.914062 -1.949219 L 9.40625 -1.949219 L 9.40625 0 L 1.753906 0 Z M 1.753906 -1.949219 "
           id="path1" />
      </g>
      <g
         id="glyph-0-1">
        <path
           d="M 4.320312 -2.070312 L 9.136719 -2.070312 L 9.136719 0 L 1.183594 0 L 1.183594 -2.070312 L 5.175781 -5.59375 C 5.535156 -5.910156 5.789062 -6.226562 5.96875 -6.539062 C 6.136719 -6.839844 6.226562 -7.171875 6.226562 -7.5 C 6.226562 -8.011719 6.046875 -8.414062 5.699219 -8.730469 C 5.355469 -9.046875 4.90625 -9.210938 4.335938 -9.210938 C 3.886719 -9.210938 3.40625 -9.105469 2.894531 -8.925781 C 2.371094 -8.730469 1.816406 -8.445312 1.214844 -8.085938 L 1.214844 -10.484375 C 1.84375 -10.695312 2.476562 -10.84375 3.105469 -10.964844 C 3.71875 -11.070312 4.320312 -11.128906 4.921875 -11.128906 C 6.226562 -11.128906 7.246094 -10.828125 7.964844 -10.261719 C 8.683594 -9.691406 9.058594 -8.878906 9.058594 -7.859375 C 9.058594 -7.261719 8.894531 -6.691406 8.59375 -6.179688 C 8.28125 -5.671875 7.636719 -4.980469 6.660156 -4.125 Z M 4.320312 -2.070312 "
           id="path2" />
      </g>
      <g
         id="glyph-0-2">
        <path
           d="M 6.988281 -5.894531 C 7.726562 -5.699219 8.28125 -5.371094 8.671875 -4.90625 C 9.046875 -4.425781 9.238281 -3.824219 9.238281 -3.105469 C 9.238281 -2.023438 8.820312 -1.199219 7.996094 -0.644531 C 7.15625 -0.0742188 5.953125 0.195312 4.363281 0.195312 C 3.796875 0.195312 3.238281 0.148438 2.671875 0.0585938 C 2.101562 -0.015625 1.546875 -0.148438 1.003906 -0.328125 L 1.003906 -2.503906 C 1.53125 -2.234375 2.054688 -2.039062 2.578125 -1.90625 C 3.089844 -1.769531 3.601562 -1.710938 4.109375 -1.710938 C 4.859375 -1.710938 5.429688 -1.828125 5.820312 -2.101562 C 6.210938 -2.355469 6.421875 -2.730469 6.421875 -3.210938 C 6.421875 -3.703125 6.210938 -4.078125 5.804688 -4.335938 C 5.398438 -4.589844 4.800781 -4.726562 4.003906 -4.726562 L 2.878906 -4.726562 L 2.878906 -6.539062 L 4.066406 -6.539062 C 4.769531 -6.539062 5.296875 -6.644531 5.640625 -6.871094 C 5.984375 -7.078125 6.164062 -7.425781 6.164062 -7.890625 C 6.164062 -8.308594 5.984375 -8.625 5.65625 -8.863281 C 5.324219 -9.089844 4.84375 -9.210938 4.230469 -9.210938 C 3.78125 -9.210938 3.316406 -9.148438 2.851562 -9.046875 C 2.386719 -8.941406 1.921875 -8.789062 1.46875 -8.59375 L 1.46875 -10.664062 C 2.023438 -10.816406 2.578125 -10.933594 3.121094 -11.011719 C 3.660156 -11.085938 4.199219 -11.128906 4.738281 -11.128906 C 6.148438 -11.128906 7.214844 -10.890625 7.921875 -10.425781 C 8.625 -9.960938 8.984375 -9.253906 8.984375 -8.324219 C 8.984375 -7.679688 8.804688 -7.15625 8.476562 -6.75 C 8.144531 -6.34375 7.648438 -6.058594 6.988281 -5.894531 Z M 6.988281 -5.894531 "
           id="path3" />
      </g>
      <g
         id="glyph-0-3">
        <path
           d="M 5.519531 -8.609375 L 2.429688 -4.035156 L 5.519531 -4.035156 Z M 5.054688 -10.933594 L 8.191406 -10.933594 L 8.191406 -4.035156 L 9.75 -4.035156 L 9.75 -1.996094 L 8.191406 -1.996094 L 8.191406 0 L 5.519531 0 L 5.519531 -1.996094 L 0.675781 -1.996094 L 0.675781 -4.410156 Z M 5.054688 -10.933594 "
           id="path4" />
      </g>
      <g
         id="glyph-0-4">
        <path
           d="M 1.589844 -10.933594 L 8.59375 -10.933594 L 8.59375 -8.863281 L 3.839844 -8.863281 L 3.839844 -7.171875 C 4.050781 -7.230469 4.261719 -7.273438 4.484375 -7.304688 C 4.695312 -7.335938 4.921875 -7.351562 5.160156 -7.351562 C 6.496094 -7.351562 7.53125 -7.003906 8.28125 -6.34375 C 9.015625 -5.683594 9.390625 -4.753906 9.390625 -3.570312 C 9.390625 -2.386719 8.984375 -1.453125 8.175781 -0.796875 C 7.363281 -0.136719 6.238281 0.195312 4.816406 0.195312 C 4.183594 0.195312 3.570312 0.136719 2.96875 0.015625 C 2.355469 -0.0898438 1.753906 -0.269531 1.15625 -0.511719 L 1.15625 -2.730469 C 1.753906 -2.386719 2.308594 -2.128906 2.851562 -1.964844 C 3.390625 -1.785156 3.886719 -1.710938 4.363281 -1.710938 C 5.039062 -1.710938 5.578125 -1.875 5.96875 -2.203125 C 6.359375 -2.535156 6.570312 -3 6.570312 -3.570312 C 6.570312 -4.140625 6.359375 -4.589844 5.96875 -4.921875 C 5.578125 -5.25 5.039062 -5.429688 4.363281 -5.429688 C 3.945312 -5.429688 3.511719 -5.371094 3.058594 -5.265625 C 2.609375 -5.160156 2.113281 -4.996094 1.589844 -4.785156 Z M 1.589844 -10.933594 "
           id="path5" />
      </g>
      <g
         id="glyph-0-5">
        <path
           d="M 5.429688 -5.398438 C 4.933594 -5.398438 4.558594 -5.234375 4.320312 -4.921875 C 4.066406 -4.589844 3.945312 -4.109375 3.945312 -3.480469 C 3.945312 -2.835938 4.066406 -2.355469 4.320312 -2.039062 C 4.558594 -1.710938 4.933594 -1.558594 5.429688 -1.558594 C 5.925781 -1.558594 6.300781 -1.710938 6.539062 -2.039062 C 6.78125 -2.355469 6.914062 -2.835938 6.914062 -3.480469 C 6.914062 -4.109375 6.78125 -4.589844 6.539062 -4.921875 C 6.300781 -5.234375 5.925781 -5.398438 5.429688 -5.398438 Z M 8.910156 -10.648438 L 8.910156 -8.625 C 8.445312 -8.835938 8.011719 -9 7.605469 -9.105469 C 7.183594 -9.210938 6.796875 -9.269531 6.40625 -9.269531 C 5.566406 -9.269531 4.90625 -9.03125 4.441406 -8.566406 C 3.960938 -8.101562 3.691406 -7.410156 3.613281 -6.496094 C 3.929688 -6.734375 4.273438 -6.914062 4.664062 -7.035156 C 5.039062 -7.15625 5.445312 -7.214844 5.894531 -7.214844 C 7.003906 -7.214844 7.90625 -6.886719 8.59375 -6.226562 C 9.285156 -5.566406 9.628906 -4.710938 9.628906 -3.660156 C 9.628906 -2.488281 9.238281 -1.546875 8.476562 -0.855469 C 7.710938 -0.148438 6.691406 0.195312 5.398438 0.195312 C 3.976562 0.195312 2.878906 -0.269531 2.101562 -1.230469 C 1.320312 -2.191406 0.929688 -3.539062 0.929688 -5.308594 C 0.929688 -7.109375 1.378906 -8.535156 2.296875 -9.570312 C 3.195312 -10.589844 4.453125 -11.113281 6.046875 -11.113281 C 6.539062 -11.113281 7.019531 -11.070312 7.5 -10.996094 C 7.980469 -10.921875 8.445312 -10.800781 8.910156 -10.648438 Z M 8.910156 -10.648438 "
           id="path6" />
      </g>
      <g
         id="glyph-0-6">
        <path
           d="M 1.003906 -10.933594 L 9.238281 -10.933594 L 9.238281 -9.34375 L 4.980469 0 L 2.234375 0 L 6.269531 -8.863281 L 1.003906 -8.863281 Z M 1.003906 -10.933594 "
           id="path7" />
      </g>
      <g
         id="glyph-0-7">
        <path
           d="M 5.21875 -4.890625 C 4.679688 -4.890625 4.273438 -4.738281 4.003906 -4.453125 C 3.71875 -4.171875 3.585938 -3.765625 3.585938 -3.226562 C 3.585938 -2.683594 3.71875 -2.265625 4.003906 -1.980469 C 4.273438 -1.695312 4.679688 -1.558594 5.21875 -1.558594 C 5.730469 -1.558594 6.136719 -1.695312 6.421875 -1.980469 C 6.691406 -2.265625 6.839844 -2.683594 6.839844 -3.226562 C 6.839844 -3.765625 6.691406 -4.171875 6.421875 -4.453125 C 6.136719 -4.738281 5.730469 -4.890625 5.21875 -4.890625 Z M 3.164062 -5.820312 C 2.503906 -6.015625 1.996094 -6.316406 1.664062 -6.734375 C 1.320312 -7.15625 1.15625 -7.664062 1.15625 -8.296875 C 1.15625 -9.226562 1.5 -9.929688 2.191406 -10.410156 C 2.878906 -10.890625 3.886719 -11.128906 5.21875 -11.128906 C 6.539062 -11.128906 7.546875 -10.890625 8.234375 -10.410156 C 8.925781 -9.929688 9.269531 -9.226562 9.269531 -8.296875 C 9.269531 -7.664062 9.089844 -7.15625 8.761719 -6.734375 C 8.414062 -6.316406 7.921875 -6.015625 7.261719 -5.820312 C 7.996094 -5.609375 8.550781 -5.28125 8.941406 -4.816406 C 9.316406 -4.351562 9.511719 -3.765625 9.511719 -3.074219 C 9.511719 -1.996094 9.148438 -1.171875 8.429688 -0.628906 C 7.710938 -0.0742188 6.628906 0.195312 5.21875 0.195312 C 3.796875 0.195312 2.714844 -0.0742188 1.996094 -0.628906 C 1.273438 -1.171875 0.914062 -1.996094 0.914062 -3.074219 C 0.914062 -3.765625 1.09375 -4.351562 1.484375 -4.816406 C 1.859375 -5.28125 2.414062 -5.609375 3.164062 -5.820312 Z M 3.824219 -8.011719 C 3.824219 -7.574219 3.945312 -7.246094 4.183594 -7.003906 C 4.425781 -6.765625 4.769531 -6.660156 5.21875 -6.660156 C 5.65625 -6.660156 6 -6.765625 6.238281 -7.003906 C 6.480469 -7.246094 6.601562 -7.574219 6.601562 -8.011719 C 6.601562 -8.445312 6.480469 -8.773438 6.238281 -9.015625 C 6 -9.238281 5.65625 -9.359375 5.21875 -9.359375 C 4.769531 -9.359375 4.425781 -9.238281 4.183594 -9 C 3.945312 -8.761719 3.824219 -8.429688 3.824219 -8.011719 Z M 3.824219 -8.011719 "
           id="path8" />
      </g>
      <g
         id="glyph-0-8">
        <path
           d="M 1.5 -0.238281 L 1.5 -2.265625 C 1.949219 -2.054688 2.371094 -1.890625 2.789062 -1.785156 C 3.195312 -1.679688 3.601562 -1.636719 4.003906 -1.636719 C 4.84375 -1.636719 5.488281 -1.859375 5.96875 -2.324219 C 6.433594 -2.789062 6.703125 -3.480469 6.796875 -4.410156 C 6.464844 -4.171875 6.105469 -3.976562 5.730469 -3.855469 C 5.355469 -3.734375 4.949219 -3.675781 4.515625 -3.675781 C 3.390625 -3.675781 2.488281 -3.988281 1.800781 -4.648438 C 1.109375 -5.296875 0.78125 -6.148438 0.78125 -7.230469 C 0.78125 -8.398438 1.15625 -9.34375 1.921875 -10.050781 C 2.683594 -10.753906 3.703125 -11.113281 4.996094 -11.113281 C 6.421875 -11.113281 7.53125 -10.636719 8.308594 -9.675781 C 9.089844 -8.714844 9.480469 -7.351562 9.480469 -5.59375 C 9.480469 -3.78125 9.015625 -2.355469 8.101562 -1.335938 C 7.183594 -0.316406 5.941406 0.195312 4.351562 0.195312 C 3.839844 0.195312 3.34375 0.148438 2.878906 0.0898438 C 2.398438 0.015625 1.949219 -0.0898438 1.5 -0.238281 Z M 4.980469 -5.503906 C 5.460938 -5.503906 5.835938 -5.65625 6.089844 -5.984375 C 6.328125 -6.300781 6.464844 -6.78125 6.464844 -7.425781 C 6.464844 -8.054688 6.328125 -8.535156 6.089844 -8.863281 C 5.835938 -9.179688 5.460938 -9.34375 4.980469 -9.34375 C 4.484375 -9.34375 4.109375 -9.179688 3.871094 -8.863281 C 3.613281 -8.535156 3.496094 -8.054688 3.496094 -7.425781 C 3.496094 -6.78125 3.613281 -6.300781 3.871094 -5.984375 C 4.109375 -5.65625 4.484375 -5.503906 4.980469 -5.503906 Z M 4.980469 -5.503906 "
           id="path9" />
      </g>
      <g
         id="glyph-0-9">
        <path
           d="M 6.898438 -5.476562 C 6.898438 -6.839844 6.765625 -7.800781 6.511719 -8.371094 C 6.253906 -8.925781 5.820312 -9.210938 5.21875 -9.210938 C 4.621094 -9.210938 4.183594 -8.925781 3.929688 -8.371094 C 3.660156 -7.800781 3.539062 -6.839844 3.539062 -5.476562 C 3.539062 -4.09375 3.660156 -3.121094 3.929688 -2.550781 C 4.183594 -1.980469 4.621094 -1.710938 5.21875 -1.710938 C 5.820312 -1.710938 6.238281 -1.980469 6.511719 -2.550781 C 6.765625 -3.121094 6.898438 -4.09375 6.898438 -5.476562 Z M 9.71875 -5.460938 C 9.71875 -3.644531 9.328125 -2.25 8.550781 -1.273438 C 7.769531 -0.285156 6.660156 0.195312 5.21875 0.195312 C 3.78125 0.195312 2.671875 -0.285156 1.890625 -1.273438 C 1.109375 -2.25 0.71875 -3.644531 0.71875 -5.460938 C 0.71875 -7.261719 1.109375 -8.65625 1.890625 -9.644531 C 2.671875 -10.636719 3.78125 -11.128906 5.21875 -11.128906 C 6.660156 -11.128906 7.769531 -10.636719 8.550781 -9.644531 C 9.328125 -8.65625 9.71875 -7.261719 9.71875 -5.460938 Z M 9.71875 -5.460938 "
           id="path10" />
      </g>
    </g>
  </defs>
  <rect
     x="-21.6"
     y="-21.6"
     width="259.2"
     height="259.2"
     fill="rgb(100%, 100%, 100%)"
     fill-opacity="1"
     id="rect10" />
  <path
     fill="none"
     stroke-width="1"
     stroke-linecap="butt"
     stroke-linejoin="round"
     stroke="rgb(0%, 0%, 0%)"
     stroke-opacity="1"
     stroke-miterlimit="10"
     d="M 134.519531 138.136719 L 78.21875 102.335938 "
     transform="matrix(1, 0, 0, -1, 0, 216)"
     id="path11" />
  <path
     fill="none"
     stroke-width="1"
     stroke-linecap="butt"
     stroke-linejoin="round"
     stroke="rgb(0%, 0%, 0%)"
     stroke-opacity="1"
     stroke-miterlimit="10"
     d="M 134.519531 138.136719 L 72.398438 146.945312 "
     transform="matrix(1, 0, 0, -1, 0, 216)"
     id="path12" />
  <path
     fill="none"
     stroke-width="1"
     stroke-linecap="butt"
     stroke-linejoin="round"
     stroke="rgb(0%, 0%, 0%)"
     stroke-opacity="1"
     stroke-miterlimit="10"
     d="M 134.519531 138.136719 L 151.964844 92.074219 "
     transform="matrix(1, 0, 0, -1, 0, 216)"
     id="path13" />
  <path
     fill="none"
     stroke-width="1"
     stroke-linecap="butt"
     stroke-linejoin="round"
     stroke="rgb(0%, 0%, 0%)"
     stroke-opacity="1"
     stroke-miterlimit="10"
     d="M 134.519531 138.136719 L 197.257812 117.765625 "
     transform="matrix(1, 0, 0, -1, 0, 216)"
     id="path14" />
  <path
     fill="none"
     stroke-width="1"
     stroke-linecap="butt"
     stroke-linejoin="round"
     stroke="rgb(0%, 0%, 0%)"
     stroke-opacity="1"
     stroke-miterlimit="10"
     d="M 134.519531 138.136719 L 119.46875 197.257812 "
     transform="matrix(1, 0, 0, -1, 0, 216)"
     id="path15" />
  <path
     fill="none"
     stroke-width="1"
     stroke-linecap="butt"
     stroke-linejoin="round"
     stroke="rgb(0%, 0%, 0%)"
     stroke-opacity="1"
     stroke-miterlimit="10"
     d="M 70.277344 18.742188 L 78.21875 102.335938 "
     transform="matrix(1, 0, 0, -1, 0, 216)"
     id="path16" />
  <path
     fill="none"
     stroke-width="1"
     stroke-linecap="butt"
     stroke-linejoin="round"
     stroke="rgb(0%, 0%, 0%)"
     stroke-opacity="1"
     stroke-miterlimit="10"
     d="M 78.21875 102.335938 L 72.398438 146.945312 "
     transform="matrix(1, 0, 0, -1, 0, 216)"
     id="path17" />
  <path
     fill="none"
     stroke-width="1"
     stroke-linecap="butt"
     stroke-linejoin="round"
     stroke="rgb(0%, 0%, 0%)"
     stroke-opacity="1"
     stroke-miterlimit="10"
     d="M 78.21875 102.335938 L 151.964844 92.074219 "
     transform="matrix(1, 0, 0, -1, 0, 216)"
     id="path18" />
  <path
     fill="none"
     stroke-width="1"
     stroke-linecap="butt"
     stroke-linejoin="round"
     stroke="rgb(0%, 0%, 0%)"
     stroke-opacity="1"
     stroke-miterlimit="10"
     d="M 78.21875 102.335938 L 33.628906 87.089844 "
     transform="matrix(1, 0, 0, -1, 0, 216)"
     id="path19" />
  <path
     fill="none"
     stroke-width="1"
     stroke-linecap="butt"
     stroke-linejoin="round"
     stroke="rgb(0%, 0%, 0%)"
     stroke-opacity="1"
     stroke-miterlimit="10"
     d="M 78.21875 102.335938 L 41.113281 174.285156 "
     transform="matrix(1, 0, 0, -1, 0, 216)"
     id="path20" />
  <path
     fill="none"
     stroke-width="1"
     stroke-linecap="butt"
     stroke-linejoin="round"
     stroke="rgb(0%, 0%, 0%)"
     stroke-opacity="1"
     stroke-miterlimit="10"
     d="M 78.21875 102.335938 L 18.742188 130.269531 "
     transform="matrix(1, 0, 0, -1, 0, 216)"
     id="path21" />
  <path
     fill="none"
     stroke-width="1"
     stroke-linecap="butt"
     stroke-linejoin="round"
     stroke="rgb(0%, 0%, 0%)"
     stroke-opacity="1"
     stroke-miterlimit="10"
     d="M 72.398438 146.945312 L 33.628906 87.089844 "
     transform="matrix(1, 0, 0, -1, 0, 216)"
     id="path22" />
  <path
     fill="none"
     stroke-width="1"
     stroke-linecap="butt"
     stroke-linejoin="round"
     stroke="rgb(0%, 0%, 0%)"
     stroke-opacity="1"
     stroke-miterlimit="10"
     d="M 72.398438 146.945312 L 41.113281 174.285156 "
     transform="matrix(1, 0, 0, -1, 0, 216)"
     id="path23" />
  <path
     fill="none"
     stroke-width="1"
     stroke-linecap="butt"
     stroke-linejoin="round"
     stroke="rgb(0%, 0%, 0%)"
     stroke-opacity="1"
     stroke-miterlimit="10"
     d="M 72.398438 146.945312 L 119.46875 197.257812 "
     transform="matrix(1, 0, 0, -1, 0, 216)"
     id="path24" />
  <path
     fill="none"
     stroke-width="1"
     stroke-linecap="butt"
     stroke-linejoin="round"
     stroke="rgb(0%, 0%, 0%)"
     stroke-opacity="1"
     stroke-miterlimit="10"
     d="M 72.398438 146.945312 L 18.742188 130.269531 "
     transform="matrix(1, 0, 0, -1, 0, 216)"
     id="path25" />
  <path
     fill="none"
     stroke-width="1"
     stroke-linecap="butt"
     stroke-linejoin="round"
     stroke="rgb(0%, 0%, 0%)"
     stroke-opacity="1"
     stroke-miterlimit="10"
     d="M 151.964844 92.074219 L 197.257812 117.765625 "
     transform="matrix(1, 0, 0, -1, 0, 216)"
     id="path26" />
  <path
     fill-rule="nonzero"
     fill="rgb(52.940369%, 80.783081%, 92.155457%)"
     fill-opacity="1"
     stroke-width="1"
     stroke-linecap="butt"
     stroke-linejoin="round"
     stroke="rgb(52.940369%, 80.783081%, 92.155457%)"
     stroke-opacity="1"
     stroke-miterlimit="10"
     d="M -0.00170632 -11.17897 C 2.963137 -11.17897 5.810794 -10.003189 7.904544 -7.905532 C 10.0022 -5.807876 11.181887 -2.964126 11.181887 0.000717568 C 11.181887 2.965561 10.0022 5.809311 7.904544 7.906968 C 5.810794 10.000718 2.963137 11.180405 -0.00170632 11.180405 C -2.96655 11.180405 -5.8103 10.000718 -7.90405 7.906968 C -10.001706 5.809311 -11.181394 2.965561 -11.181394 0.000717568 C -11.181394 -2.964126 -10.001706 -5.807876 -7.90405 -7.905532 C -5.8103 -10.003189 -2.96655 -11.17897 -0.00170632 -11.17897 Z M -0.00170632 -11.17897 "
     transform="matrix(1, 0, 0, -1, 134.521238, 77.863999)"
     id="path27" />
  <path
     fill-rule="nonzero"
     fill="rgb(52.940369%, 80.783081%, 92.155457%)"
     fill-opacity="1"
     stroke-width="1"
     stroke-linecap="butt"
     stroke-linejoin="round"
     stroke="rgb(52.940369%, 80.783081%, 92.155457%)"
     stroke-opacity="1"
     stroke-miterlimit="10"
     d="M 0.00129945 -11.181302 C 2.966143 -11.181302 5.809893 -10.001614 7.907549 -7.903958 C 10.001299 -5.810208 11.180987 -2.966458 11.180987 -0.00161415 C 11.180987 2.96323 10.001299 5.810886 7.907549 7.904636 C 5.809893 10.002292 2.966143 11.18198 0.00129945 11.18198 C -2.963544 11.18198 -5.807294 10.002292 -7.904951 7.904636 C -10.002607 5.810886 -11.178388 2.96323 -11.178388 -0.00161415 C -11.178388 -2.966458 -10.002607 -5.810208 -7.904951 -7.903958 C -5.807294 -10.001614 -2.963544 -11.181302 0.00129945 -11.181302 Z M 0.00129945 -11.181302 "
     transform="matrix(1, 0, 0, -1, 70.276044, 197.256198)"
     id="path28" />
  <path
     fill-rule="nonzero"
     fill="rgb(52.940369%, 80.783081%, 92.155457%)"
     fill-opacity="1"
     stroke-width="1"
     stroke-linecap="butt"
     stroke-linejoin="round"
     stroke="rgb(52.940369%, 80.783081%, 92.155457%)"
     stroke-opacity="1"
     stroke-miterlimit="10"
     d="M 0.000941035 -11.180181 C 2.965785 -11.180181 5.809535 -10.000494 7.907191 -7.906744 C 10.000941 -5.809088 11.180629 -2.965338 11.180629 -0.000493805 C 11.180629 2.96435 10.000941 5.8081 7.907191 7.905756 C 5.809535 10.003412 2.965785 11.179194 0.000941035 11.179194 C -2.963903 11.179194 -5.807653 10.003412 -7.905309 7.905756 C -10.002965 5.8081 -11.178746 2.96435 -11.178746 -0.000493805 C -11.178746 -2.965338 -10.002965 -5.809088 -7.905309 -7.906744 C -5.807653 -10.000494 -2.963903 -11.180181 0.000941035 -11.180181 Z M 0.000941035 -11.180181 "
     transform="matrix(1, 0, 0, -1, 78.217809, 113.663569)"
     id="path29" />
  <path
     fill-rule="nonzero"
     fill="rgb(52.940369%, 80.783081%, 92.155457%)"
     fill-opacity="1"
     stroke-width="1"
     stroke-linecap="butt"
     stroke-linejoin="round"
     stroke="rgb(52.940369%, 80.783081%, 92.155457%)"
     stroke-opacity="1"
     stroke-miterlimit="10"
     d="M -0.00122911 -11.181734 C 2.963615 -11.181734 5.807365 -10.002046 7.905021 -7.90439 C 10.002677 -5.81064 11.178458 -2.96689 11.178458 0.00186009 C 11.178458 2.966704 10.002677 5.810454 7.905021 7.904204 C 5.807365 10.00186 2.963615 11.181548 -0.00122911 11.181548 C -2.966073 11.181548 -5.809823 10.00186 -7.907479 7.904204 C -10.001229 5.810454 -11.180917 2.966704 -11.180917 0.00186009 C -11.180917 -2.96689 -10.001229 -5.81064 -7.907479 -7.90439 C -5.809823 -10.002046 -2.966073 -11.181734 -0.00122911 -11.181734 Z M -0.00122911 -11.181734 "
     transform="matrix(1, 0, 0, -1, 72.399667, 69.056548)"
     id="path30" />
  <path
     fill-rule="nonzero"
     fill="rgb(52.940369%, 80.783081%, 92.155457%)"
     fill-opacity="1"
     stroke-width="1"
     stroke-linecap="butt"
     stroke-linejoin="round"
     stroke="rgb(52.940369%, 80.783081%, 92.155457%)"
     stroke-opacity="1"
     stroke-miterlimit="10"
     d="M 0.00192395 -11.178664 C 2.966768 -11.178664 5.810518 -10.002883 7.904268 -7.905227 C 10.001924 -5.80757 11.181611 -2.96382 11.181611 0.00102348 C 11.181611 2.965867 10.001924 5.809617 7.904268 7.907273 C 5.810518 10.001023 2.966768 11.180711 0.00192395 11.180711 C -2.966826 11.180711 -5.810576 10.001023 -7.904326 7.907273 C -10.001982 5.809617 -11.18167 2.965867 -11.18167 0.00102348 C -11.18167 -2.96382 -10.001982 -5.80757 -7.904326 -7.905227 C -5.810576 -10.002883 -2.966826 -11.178664 0.00192395 -11.178664 Z M 0.00192395 -11.178664 "
     transform="matrix(1, 0, 0, -1, 151.96292, 123.926805)"
     id="path31" />
  <path
     fill-rule="nonzero"
     fill="rgb(52.940369%, 80.783081%, 92.155457%)"
     fill-opacity="1"
     stroke-width="1"
     stroke-linecap="butt"
     stroke-linejoin="round"
     stroke="rgb(52.940369%, 80.783081%, 92.155457%)"
     stroke-opacity="1"
     stroke-miterlimit="10"
     d="M 0.00155983 -11.180957 C 2.966404 -11.180957 5.810154 -10.00127 7.903904 -7.90752 C 10.00156 -5.809863 11.181247 -2.966113 11.181247 -0.0012696 C 11.181247 2.963574 10.00156 5.807324 7.903904 7.90498 C 5.810154 10.002637 2.966404 11.178418 0.00155983 11.178418 C -2.963284 11.178418 -5.81094 10.002637 -7.90469 7.90498 C -10.002346 5.807324 -11.182034 2.963574 -11.182034 -0.0012696 C -11.182034 -2.966113 -10.002346 -5.809863 -7.90469 -7.90752 C -5.81094 -10.00127 -2.963284 -11.180957 0.00155983 -11.180957 Z M 0.00155983 -11.180957 "
     transform="matrix(1, 0, 0, -1, 33.627346, 128.908887)"
     id="path32" />
  <path
     fill-rule="nonzero"
     fill="rgb(52.940369%, 80.783081%, 92.155457%)"
     fill-opacity="1"
     stroke-width="1"
     stroke-linecap="butt"
     stroke-linejoin="round"
     stroke="rgb(52.940369%, 80.783081%, 92.155457%)"
     stroke-opacity="1"
     stroke-miterlimit="10"
     d="M 0.00104392 -11.179868 C 2.965888 -11.179868 5.809638 -10.004087 7.907294 -7.90643 C 10.001044 -5.808774 11.180731 -2.965024 11.180731 -0.000180314 C 11.180731 2.964663 10.001044 5.808413 7.907294 7.90607 C 5.809638 10.003726 2.965888 11.179507 0.00104392 11.179507 C -2.9638 11.179507 -5.80755 10.003726 -7.905206 7.90607 C -10.002862 5.808413 -11.178644 2.964663 -11.178644 -0.000180314 C -11.178644 -2.965024 -10.002862 -5.808774 -7.905206 -7.90643 C -5.80755 -10.004087 -2.9638 -11.179868 0.00104392 -11.179868 Z M 0.00104392 -11.179868 "
     transform="matrix(1, 0, 0, -1, 41.112237, 41.714663)"
     id="path33" />
  <path
     fill-rule="nonzero"
     fill="rgb(52.940369%, 80.783081%, 92.155457%)"
     fill-opacity="1"
     stroke-width="1"
     stroke-linecap="butt"
     stroke-linejoin="round"
     stroke="rgb(52.940369%, 80.783081%, 92.155457%)"
     stroke-opacity="1"
     stroke-miterlimit="10"
     d="M 0.00161415 -11.181624 C 2.966458 -11.181624 5.810208 -10.001937 7.903958 -7.90428 C 10.001614 -5.81053 11.181302 -2.96678 11.181302 -0.00193654 C 11.181302 2.966813 10.001614 5.810563 7.903958 7.904313 C 5.810208 10.00197 2.966458 11.181657 0.00161415 11.181657 C -2.96323 11.181657 -5.810886 10.00197 -7.904636 7.904313 C -10.002292 5.810563 -11.18198 2.966813 -11.18198 -0.00193654 C -11.18198 -2.96678 -10.002292 -5.81053 -7.904636 -7.90428 C -5.810886 -10.001937 -2.96323 -11.181624 0.00161415 -11.181624 Z M 0.00161415 -11.181624 "
     transform="matrix(1, 0, 0, -1, 197.256198, 98.232438)"
     id="path34" />
  <path
     fill-rule="nonzero"
     fill="rgb(52.940369%, 80.783081%, 92.155457%)"
     fill-opacity="1"
     stroke-width="1"
     stroke-linecap="butt"
     stroke-linejoin="round"
     stroke="rgb(52.940369%, 80.783081%, 92.155457%)"
     stroke-opacity="1"
     stroke-miterlimit="10"
     d="M 0.00172496 -11.18198 C 2.966569 -11.18198 5.810319 -10.002292 7.904069 -7.904636 C 10.001725 -5.810886 11.181412 -2.96323 11.181412 0.00161415 C 11.181412 2.966458 10.001725 5.810208 7.904069 7.903958 C 5.810319 10.001614 2.966569 11.181302 0.00172496 11.181302 C -2.963119 11.181302 -5.810775 10.001614 -7.904525 7.903958 C -10.002181 5.810208 -11.181869 2.966458 -11.181869 0.00161415 C -11.181869 -2.96323 -10.002181 -5.810886 -7.904525 -7.904636 C -5.810775 -10.002292 -2.963119 -11.18198 0.00172496 -11.18198 Z M 0.00172496 -11.18198 "
     transform="matrix(1, 0, 0, -1, 119.467025, 18.743802)"
     id="path35" />
  <path
     fill-rule="nonzero"
     fill="rgb(52.940369%, 80.783081%, 92.155457%)"
     fill-opacity="1"
     stroke-width="1"
     stroke-linecap="butt"
     stroke-linejoin="round"
     stroke="rgb(52.940369%, 80.783081%, 92.155457%)"
     stroke-opacity="1"
     stroke-miterlimit="10"
     d="M -0.00161415 -11.179878 C 2.96323 -11.179878 5.810886 -10.004096 7.904636 -7.90644 C 10.002292 -5.808784 11.18198 -2.965034 11.18198 -0.000190081 C 11.18198 2.964654 10.002292 5.808404 7.904636 7.90606 C 5.810886 10.003716 2.96323 11.179497 -0.00161415 11.179497 C -2.966458 11.179497 -5.810208 10.003716 -7.903958 7.90606 C -10.001614 5.808404 -11.181302 2.964654 -11.181302 -0.000190081 C -11.181302 -2.965034 -10.001614 -5.808784 -7.903958 -7.90644 C -5.810208 -10.004096 -2.966458 -11.179878 -0.00161415 -11.179878 Z M -0.00161415 -11.179878 "
     transform="matrix(1, 0, 0, -1, 18.743802, 85.730279)"
     id="path36" />
  <g
     fill="rgb(0%, 0%, 0%)"
     fill-opacity="1"
     id="g36">
    <use
       xlink:href="#glyph-0-0"
       x="129.302488"
       y="81.996811"
       id="use36" />
  </g>
  <g
     fill="rgb(0%, 0%, 0%)"
     fill-opacity="1"
     id="g37">
    <use
       xlink:href="#glyph-0-1"
       x="65.057294"
       y="201.389011"
       id="use37" />
  </g>
  <g
     fill="rgb(0%, 0%, 0%)"
     fill-opacity="1"
     id="g38">
    <use
       xlink:href="#glyph-0-2"
       x="72.999059"
       y="117.796381"
       id="use38" />
  </g>
  <g
     fill="rgb(0%, 0%, 0%)"
     fill-opacity="1"
     id="g39">
    <use
       xlink:href="#glyph-0-3"
       x="67.180917"
       y="73.18936"
       id="use39" />
  </g>
  <g
     fill="rgb(0%, 0%, 0%)"
     fill-opacity="1"
     id="g40">
    <use
       xlink:href="#glyph-0-4"
       x="146.74417"
       y="128.059617"
       id="use40" />
  </g>
  <g
     fill="rgb(0%, 0%, 0%)"
     fill-opacity="1"
     id="g41">
    <use
       xlink:href="#glyph-0-5"
       x="28.408596"
       y="133.041699"
       id="use41" />
  </g>
  <g
     fill="rgb(0%, 0%, 0%)"
     fill-opacity="1"
     id="g42">
    <use
       xlink:href="#glyph-0-6"
       x="35.893487"
       y="45.847476"
       id="use42" />
  </g>
  <g
     fill="rgb(0%, 0%, 0%)"
     fill-opacity="1"
     id="g43">
    <use
       xlink:href="#glyph-0-7"
       x="192.037448"
       y="102.365251"
       id="use43" />
  </g>
  <g
     fill="rgb(0%, 0%, 0%)"
     fill-opacity="1"
     id="g44">
    <use
       xlink:href="#glyph-0-8"
       x="114.248275"
       y="22.876614"
       id="use44" />
  </g>
  <g
     fill="rgb(0%, 0%, 0%)"
     fill-opacity="1"
     id="g46">
    <use
       xlink:href="#glyph-0-0"
       x="8.306302"
       y="89.863091"
       id="use45" />
    <use
       xlink:href="#glyph-0-9"
       x="18.746302"
       y="89.863091"
       id="use46" />
  </g>
</svg>
